<svg width="94" height="95" viewBox="0 0 94 95" fill="none" xmlns="http://www.w3.org/2000/svg">
<rect y="0.468506" width="93.7632" height="93.7632" rx="26" fill="white"/>
<path d="M50.1308 24.3689C50.5251 25.0248 51.1785 25.8614 51.0592 26.667C50.1308 32.6421 40.3832 36.7787 40.3832 40.4557C40.3832 43.6731 44.5607 48.2693 46.8816 49.1886C45.0249 46.8905 43.1682 43.2135 43.1682 41.8346C43.1682 36.5531 51.9875 34.9402 51.9875 28.0459C51.9875 25.2881 51.0831 24.7557 50.1308 24.3689Z" fill="#7000FF"/>
<path d="M57.5576 34.021C52.9159 34.021 47.3458 38.1576 47.3458 40.9153C47.3458 44.1327 50.1308 45.5116 50.1308 47.3501C50.1308 49.1886 49.6666 49.1886 49.2025 49.6482C51.0592 49.1886 52.4517 48.2693 52.4517 45.5116C52.4517 43.2135 50.595 43.2135 50.595 40.4557C50.595 37.5336 55.7009 34.9402 57.5576 34.021Z" fill="#7000FF"/>
<path d="M56.6293 50.1078C58.9501 49.6482 60.8068 50.2498 60.8068 51.9463C60.8068 54.2444 58.9501 55.1637 56.1651 57.4618C61.7352 56.0829 63.1277 54.2444 63.1277 52.4059C63.1277 50.1078 61.7352 48.7289 59.8785 48.7289C58.486 48.7289 57.5576 48.7289 56.6293 50.1078Z" fill="#7000FF"/>
<path d="M39.4548 54.2444C38.0139 54.7936 37.5981 55.6233 37.5981 56.0829C37.5981 57.4618 42.2399 58.8407 46.4174 58.8407C50.1915 58.8407 52.4517 58.381 54.7726 57.4618C53.8442 57.0022 53.1522 55.4555 52.9159 54.7041C50.595 55.6233 47.3458 56.0829 45.9533 56.0829C44.0966 56.0829 42.2399 56.0829 39.919 55.6233C39.7517 55.5902 38.9906 55.1637 39.4548 54.2444Z" fill="#7000FF"/>
<path d="M40.8473 58.8407C40.3832 58.8407 38.9906 59.0876 38.9906 60.6792C38.9906 62.5177 43.1682 63.4369 46.4174 63.4369C48.7383 63.4369 52.4271 62.8189 53.8442 62.058C52.9159 61.5984 51.9875 60.2195 51.5233 59.3003C50.595 59.7599 47.8099 60.2195 45.9533 60.2195C41.3115 60.2195 40.8473 59.7599 40.8473 58.8407Z" fill="#7000FF"/>
<path d="M38.0623 62.058C32.9564 62.058 30.6355 62.9773 30.6355 64.8158C30.6355 66.6543 39.919 67.1139 42.704 67.1139C51.5233 67.1139 61.271 64.8158 61.271 62.9773C61.271 62.4146 60.9216 61.5616 59.8785 61.5984C59.8785 62.9773 52.5244 64.6004 42.704 64.8158C38.8438 64.9004 33.8847 64.8158 33.8847 63.8965C33.8847 63.4369 35.2772 62.9773 38.0623 62.058Z" fill="#7000FF"/>
<path d="M36.2056 67.5735C38.5265 70.3313 42.2399 70.3313 45.9533 70.3313C54.7726 70.3313 62.1994 68.4928 63.1277 66.1946C63.1277 66.1946 63.5919 65.2754 62.6635 64.8158C60.8068 67.1139 49.2025 68.0331 46.4174 68.0331C43.6313 68.0331 39.919 68.4928 39.919 67.5735H36.2056Z" fill="#7000FF"/>
<path d="M41.7757 49.6482C38.5265 49.1886 33.8847 50.5674 33.8847 51.4867C33.8847 52.8656 37.1339 54.2444 45.9533 54.2444C53.2511 54.2444 55.7009 53.3252 55.7009 50.5674C54.3084 51.9463 46.4174 51.9442 45.0249 51.9463C40.8493 51.9526 38.0623 51.9463 37.5981 51.4867C36.9631 50.8547 38.4301 50.4435 41.7757 49.6482Z" fill="#7000FF"/>
</svg>
