<svg width="95" height="95" viewBox="0 0 95 95" fill="none" xmlns="http://www.w3.org/2000/svg">
<rect x="0.841309" y="0.289551" width="93.7632" height="93.7632" rx="26" fill="white"/>
<path d="M42.9874 63.2718L47.7229 66.1131L64.7708 56.6421V37.2265L47.7229 27.2819L30.6751 37.2265V56.1686C30.6751 56.1686 34.4635 59.4834 36.8313 59.4834C38.7255 59.4834 39.199 58.5363 39.199 58.0628V38.1736H42.5139V58.5363C42.5139 60.9041 39.6726 62.7983 37.3048 62.7983C33.5164 62.7983 27.3602 57.5892 27.3602 57.5892V35.3323C27.3602 35.3323 46.5454 23.967 47.7229 23.967C48.9005 23.967 68.0857 35.3323 68.0857 35.3323V58.0628L47.7229 69.428L39.6726 65.166L42.9874 63.2718Z" fill="#7000FF"/>
<path d="M60.5088 44.3298C60.5088 40.5413 58.1411 37.7 52.4585 37.7C47.2494 37.7 44.4081 40.0678 44.4081 42.9091C44.4081 50.4859 57.6675 46.224 57.6675 50.4859C57.6675 52.3801 56.2469 53.3272 52.932 53.3272C49.6172 53.3272 47.2494 52.8537 47.2494 49.5388H43.9345C43.9345 53.8008 47.7229 56.1686 52.932 56.1686C58.1411 56.1686 61.4559 53.8008 61.4559 50.4859C61.4559 43.1283 47.7229 47.1711 47.7229 42.9091C47.7229 41.4885 48.6701 40.5413 52.4585 40.5413C55.7733 40.5413 57.194 41.962 57.194 44.3298H60.5088Z" fill="#7000FF"/>
</svg>
