<svg width="95" height="95" viewBox="0 0 95 95" fill="none" xmlns="http://www.w3.org/2000/svg">
<rect x="0.959717" y="0.468506" width="93.7632" height="93.7632" rx="26" fill="white"/>
<path fill-rule="evenodd" clip-rule="evenodd" d="M35.0554 32.6699C35.0554 32.6699 35.0554 30.7757 35.0554 26.5138C35.0554 22.2518 41.2116 21.3047 42.6322 21.3047C44.0529 21.3047 49.7355 21.3047 52.5768 21.3047C55.4181 21.3047 59.2065 25.0931 59.2065 26.5138C59.2065 27.9344 59.2065 40.7203 59.2065 40.7203C59.2065 42.141 56.3652 45.9294 54.471 45.9294H41.6851C36.476 45.9294 34.1083 49.2442 34.1083 51.612V59.1888C34.1083 59.1888 30.3199 59.1888 28.4257 59.1888C26.5315 59.1888 22.743 54.9269 22.743 49.7178C22.743 44.5087 22.743 45.4558 22.743 43.0881C22.743 40.7203 24.6372 34.0906 30.3199 34.0906C36.0025 34.0906 47.3677 34.0906 47.3677 34.0906V32.6699H35.0554ZM43.1058 27.4609C43.1058 26.1532 42.1587 25.0931 40.738 25.0931C39.3173 25.0931 38.3702 26.0402 38.3702 27.4609C38.3702 28.8815 39.3173 29.8286 40.738 29.8286C42.1587 29.8286 43.1058 28.7685 43.1058 27.4609Z" fill="#7000FF"/>
<path fill-rule="evenodd" clip-rule="evenodd" d="M60.6272 33.617C60.6272 33.617 66.7833 33.617 68.204 33.617C69.6247 33.617 73.4131 39.2997 73.4131 44.0352C73.4131 48.7707 73.4131 47.35 73.4131 49.7178C73.4131 52.0855 71.0453 58.2417 66.7833 58.2417C62.5214 58.2417 47.3677 58.2417 47.3677 58.2417V59.6624H59.6801V65.8185C59.6801 68.6599 54.471 71.5012 51.1561 71.5012H43.5793C40.2645 71.5012 35.0554 67.7127 35.0554 65.8185C35.0554 63.9243 35.0554 52.0855 35.0554 52.0855C35.0554 49.7178 37.8967 46.8765 40.738 46.8765C40.738 46.8765 50.9015 46.8765 54.471 46.8765C58.0405 46.8765 60.6272 42.141 60.6272 40.7203C60.6272 39.2997 60.6272 33.617 60.6272 33.617ZM56.8388 65.345C56.8388 64.0373 55.7787 62.9772 54.471 62.9772C53.1633 62.9772 52.1032 64.0373 52.1032 65.345C52.1032 66.6527 53.1633 67.7127 54.471 67.7127C55.7787 67.7127 56.8388 66.6527 56.8388 65.345Z" fill="#7000FF"/>
</svg>
