<svg width="95" height="95" viewBox="0 0 95 95" fill="none" xmlns="http://www.w3.org/2000/svg">
<rect x="0.798462" y="0.289551" width="93.7632" height="93.7632" rx="26" fill="white"/>
<path fillRule="evenodd" clip-rule="evenodd" d="M56.3923 42.9341C56.8005 43.6411 57.1888 44.3481 57.557 45.053C58.0952 46.0832 58.5903 47.1089 59.0415 48.1231C59.8412 49.9207 60.503 51.6824 61.0215 53.37C61.256 54.1331 61.4611 54.881 61.6366 55.6103C63.0557 61.5101 62.5265 66.1863 59.7922 67.7649C57.0369 69.3557 52.6772 67.4348 48.2423 63.1882C47.6364 62.608 47.029 61.9843 46.4241 61.3202C45.3102 60.0973 44.2047 58.7373 43.132 57.2593C42.4902 56.3749 41.8601 55.4482 41.247 54.4833C40.8185 53.8088 40.3982 53.1156 39.988 52.4052C39.5718 51.6843 39.1762 50.9634 38.8016 50.2447C38.3105 49.3025 37.8553 48.3643 37.4368 47.4351C36.6637 45.7187 36.0158 44.0334 35.4977 42.4125C35.2333 41.5852 35.0027 40.7747 34.8064 39.9853C33.3098 33.9648 33.8144 29.1758 36.5881 27.5744C39.3518 25.9788 43.7295 27.9162 48.1783 32.1898C48.7497 32.7387 49.3223 33.3262 49.8928 33.9496C51.111 35.281 52.3197 36.7766 53.487 38.4116C54.0619 39.217 54.6268 40.0562 55.1778 40.9262C55.591 41.5786 55.9963 42.2483 56.3923 42.9341ZM54.6993 44.2468C54.142 43.225 53.3295 41.9664 52.3514 40.621C51.7688 39.8197 51.1275 38.9877 50.4462 38.1566C49.7508 37.3082 49.0139 36.4608 48.2554 35.6482C47.6747 35.026 47.0815 34.4242 46.4847 33.8579C43.3693 30.9018 40.1558 28.9121 38.125 30.0403C36.07 31.1819 36.2169 35.076 37.2386 39.3335C37.429 40.1269 37.6498 40.9329 37.8923 41.7361C38.1624 42.6304 38.4595 43.5213 38.7718 44.3873C39.1511 45.4392 39.5528 46.4546 39.9556 47.395C40.6397 48.9919 41.327 50.3727 41.9134 51.3501C42.4919 52.3142 43.373 53.566 44.4398 54.9299C45.0837 55.753 45.7952 56.6169 46.5486 57.483C47.1237 58.1441 47.7233 58.8065 48.336 59.4529C48.9211 60.0704 49.5181 60.6734 50.117 61.2468C53.3942 64.3846 56.7285 66.6391 58.4877 65.5567C60.247 64.4741 60.0538 60.5837 59.065 56.2848C58.8931 55.5377 58.6972 54.7783 58.4833 54.0191C58.2166 53.0722 57.9219 52.1256 57.6111 51.2039C57.2224 50.0514 56.8084 48.9378 56.3922 47.9108C55.8114 46.4774 55.2262 45.2128 54.6993 44.2468Z" fill="#7000FF"/>
<path d="M48.2554 35.6482C47.6747 35.026 47.0815 34.4242 46.4847 33.8579C45.0681 35.3244 43.7293 36.8898 42.558 38.4141C41.8349 39.3552 41.1757 40.2807 40.6015 41.1576C39.985 42.099 39.4665 42.9845 39.0721 43.7733C38.9732 43.9712 38.8729 44.176 38.7718 44.3873C39.1511 45.4392 39.5528 46.4546 39.9556 47.395C40.551 46.0845 41.2084 44.8556 41.9134 43.7733C42.5576 42.7844 43.2941 41.7343 44.092 40.6696C44.7247 39.8253 45.3961 38.9717 46.0906 38.132C46.7938 37.2818 47.5207 36.4458 48.2554 35.6482Z" fill="#7000FF"/>
<path d="M57.557 45.053C58.0952 46.0832 58.5903 47.1089 59.0415 48.1231C59.7967 46.2848 60.4862 44.2379 61.0244 42.1591C61.2069 41.4538 61.3721 40.7449 61.5165 40.0392C62.6074 34.7075 62.5133 29.5604 59.7922 27.5744C57.0211 25.5519 52.4208 28.2256 48.1783 32.1898C48.7497 32.7387 49.3223 33.3262 49.8928 33.9496C53.4587 30.4295 56.9278 28.2205 58.4877 30.0403C59.9837 31.7855 60.0357 35.3683 59.1967 39.4066C59.0505 40.1101 58.8773 40.8274 58.68 41.5512C58.3637 42.7118 57.9853 43.8891 57.557 45.053Z" fill="#7000FF"/>
<path d="M57.6111 51.2039C57.2224 50.0514 56.8084 48.9378 56.3922 47.9108C56.0073 48.7685 55.599 49.6038 55.1728 50.403C54.3988 51.8543 53.3687 53.4147 52.1911 54.9648C51.5527 55.8053 50.8708 56.6428 50.1629 57.4582C49.5689 58.1424 48.9565 58.811 48.336 59.4529C48.9211 60.0704 49.5181 60.6734 50.117 61.2468C51.3288 59.9194 52.4731 58.5303 53.5024 57.2025C54.2135 56.2852 54.8697 55.3971 55.4553 54.5787C55.7919 54.1083 56.1053 53.661 56.3923 53.2443C56.7947 52.6603 57.2046 51.9726 57.6111 51.2039Z" fill="#7000FF"/>
<path d="M48.2423 63.1882C47.6364 62.608 47.029 61.9843 46.4241 61.3202C43.072 64.4002 39.7843 66.3863 38.125 65.5567C36.4104 64.6994 36.255 60.8188 37.1272 56.2992C37.2894 55.4591 37.487 54.5969 37.7168 53.728C38.0238 52.5668 38.3881 51.3935 38.8016 50.2447C38.3105 49.3025 37.8553 48.3643 37.4368 47.4351C36.7346 49.183 36.0544 51.125 35.4995 53.1011C35.2556 53.9694 35.036 54.8442 34.8492 55.7121C33.7013 61.0475 33.7987 66.1177 37.1779 67.7649C40.444 69.357 44.53 66.8024 48.2423 63.1882Z" fill="#7000FF"/>
<path d="M34.8492 55.7121C35.036 54.8442 35.2556 53.9694 35.4995 53.1011C31.0546 51.7093 27.7068 49.7845 27.7068 47.9108C27.7068 45.9561 30.913 43.8767 35.4977 42.4125C35.2333 41.5852 35.0027 40.7747 34.8064 39.9853C29.4656 41.6116 25.3391 44.2708 25.339 47.9108C25.339 51.565 29.4931 54.1521 34.8492 55.7121Z" fill="#7000FF"/>
<path d="M40.6015 41.1576C41.1757 40.2807 41.8349 39.3552 42.558 38.4141C40.767 38.6218 38.966 38.9288 37.2386 39.3335C37.429 40.1269 37.6498 40.9329 37.8923 41.7361C38.7657 41.5193 39.6721 41.3252 40.6015 41.1576Z" fill="#7000FF"/>
<path d="M46.0906 38.132C45.3961 38.9717 44.7247 39.8253 44.092 40.6696C45.4667 40.5326 46.8638 40.4585 48.2554 40.4585C49.6306 40.4585 51.0042 40.5139 52.3514 40.621C51.7688 39.8197 51.1275 38.9877 50.4462 38.1566C49.702 38.1169 48.9694 38.0949 48.2554 38.0907C47.5498 38.0865 46.826 38.1003 46.0906 38.132Z" fill="#7000FF"/>
<path d="M58.68 41.5512C58.8773 40.8274 59.0505 40.1101 59.1967 39.4066C57.3468 38.9625 55.4081 38.631 53.487 38.4116C54.0619 39.217 54.6268 40.0562 55.1778 40.9262C56.3907 41.093 57.5649 41.3024 58.68 41.5512Z" fill="#7000FF"/>
<path d="M61.5165 40.0392C61.3721 40.7449 61.2069 41.4538 61.0244 42.1591C65.4169 43.4737 68.4322 45.4776 68.4322 47.9108C68.4322 50.2402 65.2779 52.1143 61.0215 53.37C61.256 54.1331 61.4611 54.881 61.6366 55.6103C66.8186 54.0499 70.8 51.5073 70.8 47.9108C70.8 44.2755 66.7584 41.6543 61.5165 40.0392Z" fill="#7000FF"/>
<path d="M55.4553 54.5787C54.8697 55.3971 54.2135 56.2852 53.5024 57.2025C55.3724 56.9997 57.2594 56.6947 59.065 56.2848C58.8931 55.5377 58.6972 54.7783 58.4833 54.0191C57.4998 54.2358 56.4838 54.4229 55.4553 54.5787Z" fill="#7000FF"/>
<path d="M50.1629 57.4582C50.8708 56.6428 51.5527 55.8053 52.1911 54.9648C50.85 55.0795 49.5235 55.1386 48.2554 55.1386C47.0315 55.1386 45.7458 55.0654 44.4398 54.9299C45.0837 55.753 45.7952 56.6169 46.5486 57.483C47.1006 57.5004 47.6448 57.5081 48.1783 57.5063C48.8259 57.5041 49.4891 57.4881 50.1629 57.4582Z" fill="#7000FF"/>
<path d="M37.7168 53.728C37.487 54.5969 37.2894 55.4591 37.1272 56.2992C39.0745 56.7408 41.1168 57.0603 43.132 57.2593C42.4902 56.3749 41.8601 55.4482 41.247 54.4833C40.0485 54.2736 38.8612 54.0191 37.7168 53.728Z" fill="#7000FF"/>
<path d="M48.2554 42.9341C50.8877 43.0046 52.9379 45.2809 52.805 47.9108C52.6801 50.3828 50.8088 52.2962 48.336 52.4052C45.7473 52.5193 43.5863 50.4986 43.4549 47.9108C43.318 45.2139 45.556 42.8618 48.2554 42.9341Z" fill="#7000FF"/>
</svg>
