<svg width="95" height="95" viewBox="0 0 95 95" fill="none" xmlns="http://www.w3.org/2000/svg">
<rect x="0.659912" y="0.289551" width="93.7632" height="93.7632" rx="26" fill="white"/>
<path fill-rule="evenodd" clip-rule="evenodd" d="M56.2536 42.9341C56.6618 43.6411 57.0501 44.3481 57.4183 45.053C57.9565 46.0832 58.4516 47.1089 58.9029 48.1231C59.7026 49.9207 60.3643 51.6824 60.8828 53.37C61.1173 54.1331 61.3225 54.881 61.4979 55.6103C62.9171 61.5101 62.3878 66.1863 59.6535 67.7649C56.8982 69.3557 52.5385 67.4348 48.1037 63.1882C47.4977 62.608 46.8903 61.9843 46.2855 61.3202C45.1715 60.0973 44.066 58.7373 42.9933 57.2593C42.3515 56.3749 41.7215 55.4482 41.1084 54.4833C40.6798 53.8088 40.2595 53.1156 39.8493 52.4052C39.4331 51.6843 39.0376 50.9634 38.6629 50.2447C38.1718 49.3025 37.7166 48.3643 37.2981 47.4351C36.525 45.7187 35.8772 44.0334 35.3591 42.4125C35.0946 41.5852 34.864 40.7747 34.6678 39.9853C33.1711 33.9648 33.6757 29.1758 36.4495 27.5744C39.2131 25.9788 43.5909 27.9162 48.0396 32.1898C48.6111 32.7387 49.1836 33.3262 49.7541 33.9496C50.9724 35.281 52.1811 36.7766 53.3483 38.4116C53.9233 39.217 54.4881 40.0562 55.0392 40.9262C55.4523 41.5786 55.8577 42.2483 56.2536 42.9341ZM54.5606 44.2468C54.0033 43.225 53.1909 41.9664 52.2127 40.621C51.6301 39.8197 50.9888 38.9877 50.3076 38.1566C49.6122 37.3082 48.8752 36.4608 48.1167 35.6482C47.5361 35.026 46.9428 34.4242 46.346 33.8579C43.2306 30.9018 40.0171 28.9121 37.9863 30.0403C35.9314 31.1819 36.0783 35.076 37.0999 39.3335C37.2903 40.1269 37.5111 40.9329 37.7536 41.7361C38.0237 42.6304 38.3208 43.5213 38.6331 44.3873C39.0124 45.4392 39.4141 46.4546 39.817 47.395C40.501 48.9919 41.1883 50.3727 41.7748 51.3501C42.3532 52.3142 43.2343 53.566 44.3011 54.9299C44.945 55.753 45.6565 56.6169 46.4099 57.483C46.9851 58.1441 47.5847 58.8065 48.1973 59.4529C48.7824 60.0704 49.3794 60.6734 49.9783 61.2468C53.2555 64.3846 56.5899 66.6391 58.3491 65.5567C60.1084 64.4741 59.9152 60.5837 58.9263 56.2848C58.7544 55.5377 58.5585 54.7783 58.3447 54.0191C58.0779 53.0722 57.7832 52.1256 57.4724 51.2039C57.0837 50.0514 56.6697 48.9378 56.2536 47.9108C55.6727 46.4774 55.0876 45.2128 54.5606 44.2468Z" fill="#7000FF"/>
<path d="M48.1167 35.6482C47.5361 35.026 46.9428 34.4242 46.346 33.8579C44.9294 35.3244 43.5906 36.8898 42.4193 38.4141C41.6962 39.3552 41.037 40.2807 40.4628 41.1576C39.8463 42.099 39.3278 42.9845 38.9334 43.7733C38.8345 43.9712 38.7343 44.176 38.6331 44.3873C39.0124 45.4392 39.4141 46.4546 39.817 47.395C40.4123 46.0845 41.0697 44.8556 41.7748 43.7733C42.419 42.7844 43.1555 41.7343 43.9533 40.6696C44.5861 39.8253 45.2574 38.9717 45.9519 38.132C46.6551 37.2818 47.382 36.4458 48.1167 35.6482Z" fill="#7000FF"/>
<path d="M57.4183 45.053C57.9565 46.0832 58.4516 47.1089 58.9029 48.1231C59.6581 46.2848 60.3475 44.2379 60.8857 42.1591C61.0683 41.4538 61.2334 40.7449 61.3778 40.0392C62.4688 34.7075 62.3746 29.5604 59.6535 27.5744C56.8824 25.5519 52.2821 28.2256 48.0396 32.1898C48.6111 32.7387 49.1836 33.3262 49.7541 33.9496C53.32 30.4295 56.7891 28.2205 58.3491 30.0403C59.845 31.7855 59.897 35.3683 59.058 39.4066C58.9119 40.1101 58.7387 40.8274 58.5414 41.5512C58.225 42.7118 57.8466 43.8891 57.4183 45.053Z" fill="#7000FF"/>
<path d="M57.4724 51.2039C57.0837 50.0514 56.6697 48.9378 56.2536 47.9108C55.8687 48.7685 55.4604 49.6038 55.0341 50.403C54.2601 51.8543 53.2301 53.4147 52.0525 54.9648C51.414 55.8053 50.7321 56.6428 50.0242 57.4582C49.4302 58.1424 48.8178 58.811 48.1973 59.4529C48.7824 60.0704 49.3794 60.6734 49.9783 61.2468C51.1901 59.9194 52.3344 58.5303 53.3637 57.2025C54.0748 56.2852 54.731 55.3971 55.3166 54.5787C55.6533 54.1083 55.9666 53.661 56.2536 53.2443C56.656 52.6603 57.0659 51.9726 57.4724 51.2039Z" fill="#7000FF"/>
<path d="M48.1037 63.1882C47.4977 62.608 46.8903 61.9843 46.2855 61.3202C42.9333 64.4002 39.6456 66.3863 37.9863 65.5567C36.2718 64.6994 36.1163 60.8188 36.9886 56.2992C37.1507 55.4591 37.3483 54.5969 37.5781 53.728C37.8851 52.5668 38.2494 51.3935 38.6629 50.2447C38.1718 49.3025 37.7166 48.3643 37.2981 47.4351C36.596 49.183 35.9157 51.125 35.3608 53.1011C35.1169 53.9694 34.8973 54.8442 34.7106 55.7121C33.5626 61.0475 33.6601 66.1177 37.0392 67.7649C40.3053 69.357 44.3913 66.8024 48.1037 63.1882Z" fill="#7000FF"/>
<path d="M34.7106 55.7121C34.8973 54.8442 35.1169 53.9694 35.3608 53.1011C30.916 51.7093 27.5681 49.7845 27.5681 47.9108C27.5681 45.9561 30.7744 43.8767 35.3591 42.4125C35.0946 41.5852 34.864 40.7747 34.6678 39.9853C29.327 41.6116 25.2004 44.2708 25.2004 47.9108C25.2003 51.565 29.3545 54.1521 34.7106 55.7121Z" fill="#7000FF"/>
<path d="M40.4628 41.1576C41.037 40.2807 41.6962 39.3552 42.4193 38.4141C40.6284 38.6218 38.8273 38.9288 37.0999 39.3335C37.2903 40.1269 37.5111 40.9329 37.7536 41.7361C38.6271 41.5193 39.5334 41.3252 40.4628 41.1576Z" fill="#7000FF"/>
<path d="M45.9519 38.132C45.2574 38.9717 44.5861 39.8253 43.9533 40.6696C45.3281 40.5326 46.7251 40.4585 48.1167 40.4585C49.4919 40.4585 50.8655 40.5139 52.2127 40.621C51.6301 39.8197 50.9888 38.9877 50.3076 38.1566C49.5633 38.1169 48.8308 38.0949 48.1167 38.0907C47.4111 38.0865 46.6874 38.1003 45.9519 38.132Z" fill="#7000FF"/>
<path d="M58.5414 41.5512C58.7387 40.8274 58.9119 40.1101 59.058 39.4066C57.2081 38.9625 55.2694 38.631 53.3483 38.4116C53.9233 39.217 54.4881 40.0562 55.0392 40.9262C56.252 41.093 57.4262 41.3024 58.5414 41.5512Z" fill="#7000FF"/>
<path d="M61.3778 40.0392C61.2334 40.7449 61.0683 41.4538 60.8857 42.1591C65.2782 43.4737 68.2936 45.4776 68.2936 47.9108C68.2936 50.2402 65.1393 52.1143 60.8828 53.37C61.1173 54.1331 61.3225 54.881 61.4979 55.6103C66.6799 54.0499 70.6613 51.5073 70.6613 47.9108C70.6613 44.2755 66.6197 41.6543 61.3778 40.0392Z" fill="#7000FF"/>
<path d="M55.3166 54.5787C54.731 55.3971 54.0748 56.2852 53.3637 57.2025C55.2337 56.9997 57.1207 56.6947 58.9263 56.2848C58.7544 55.5377 58.5585 54.7783 58.3447 54.0191C57.3611 54.2358 56.3451 54.4229 55.3166 54.5787Z" fill="#7000FF"/>
<path d="M50.0242 57.4582C50.7321 56.6428 51.414 55.8053 52.0525 54.9648C50.7114 55.0795 49.3848 55.1386 48.1167 55.1386C46.8928 55.1386 45.6071 55.0654 44.3011 54.9299C44.945 55.753 45.6565 56.6169 46.4099 57.483C46.9619 57.5004 47.5061 57.5081 48.0396 57.5063C48.6872 57.5041 49.3504 57.4881 50.0242 57.4582Z" fill="#7000FF"/>
<path d="M37.5781 53.728C37.3483 54.5969 37.1507 55.4591 36.9886 56.2992C38.9358 56.7408 40.9781 57.0603 42.9933 57.2593C42.3515 56.3749 41.7215 55.4482 41.1084 54.4833C39.9098 54.2736 38.7225 54.0191 37.5781 53.728Z" fill="#7000FF"/>
<path d="M48.1167 42.9341C50.749 43.0046 52.7992 45.2809 52.6663 47.9108C52.5415 50.3828 50.6701 52.2962 48.1973 52.4052C45.6087 52.5193 43.4476 50.4986 43.3163 47.9108C43.1793 45.2139 45.4174 42.8618 48.1167 42.9341Z" fill="#7000FF"/>
</svg>
