<svg width="95" height="95" viewBox="0 0 95 95" fill="none" xmlns="http://www.w3.org/2000/svg">
<rect x="0.959717" y="0.878906" width="93.7632" height="93.7632" rx="26" fill="white"/>
<path d="M33.774 41.7576L31.9355 39.9191L30.097 42.2172L31.9355 44.0557L33.774 41.7576Z" fill="#7000FF"/>
<path d="M24.5815 63.3599C27.7989 44.0557 40.2087 33.944 51.6993 33.944C63.1899 33.944 73.7613 42.6769 73.7613 45.4346C73.7613 45.4346 66.8669 39.4595 58.1341 39.4595C49.4012 39.4595 42.0472 46.3539 42.0472 57.3848C42.0472 58.3041 42.0472 61.5214 42.9665 63.3599H24.5815Z" fill="#7000FF"/>
<path d="M42.5069 34.8633L41.128 33.0248L38.8299 34.8633L40.2087 36.7018L42.5069 34.8633Z" fill="#7000FF"/>
<path d="M51.6993 33.0248L50.7801 31.1863H48.0223L48.9416 33.0248H51.6993Z" fill="#7000FF"/>
<path d="M61.8111 35.3229L59.0533 34.8633V32.5652L61.8111 33.4844V35.3229Z" fill="#7000FF"/>
<path d="M59.0533 39.4595L61.8111 40.3788V41.7576L59.0533 40.8384V39.4595Z" fill="#7000FF"/>
<path d="M52.6186 42.6769V40.8384L54.4571 40.3788V42.2172L52.6186 42.6769Z" fill="#7000FF"/>
<path d="M47.5627 46.8135L46.6435 44.975L48.0223 43.5961L48.9416 45.4346L47.5627 46.8135Z" fill="#7000FF"/>
<path d="M45.2646 54.1675L46.1838 50.9501L43.8857 49.5712L42.9665 52.7886L45.2646 54.1675Z" fill="#7000FF"/>
<path d="M46.1838 62.4407V59.683L42.9665 57.8445V61.0618L46.1838 62.4407Z" fill="#7000FF"/>
<path d="M25.5008 55.0867L26.8797 51.8693L24.1219 50.4905L22.743 53.7078L25.5008 55.0867Z" fill="#7000FF"/>
</svg>
