<svg width="95" height="95" viewBox="0 0 95 95" fill="none" xmlns="http://www.w3.org/2000/svg">
<rect x="0.702759" y="0.289551" width="93.7632" height="93.7632" rx="26" fill="white"/>
<path d="M52.7712 27.6206C64.9405 35.8 68.9304 45.7748 65.7385 55.1511C68.9304 59.54 70.7259 62.9314 68.9304 67.1209C67.4194 65.0282 66.1375 63.1309 62.9455 63.1309C59.7536 63.1309 55.5642 67.1209 48.9808 67.1209C42.3974 67.1209 32.4226 63.7294 25.0413 53.3556C35.0161 59.3405 44.7914 59.3405 49.9783 55.7496C43.7939 51.5602 38.208 45.1763 29.2307 33.805C37.809 39.7899 41.2005 43.3808 45.7889 45.7748C43.5944 43.3808 40.203 39.7899 35.0161 31.411C43.7939 39.3909 51.1753 44.9768 56.3622 48.5677C57.9581 43.7798 58.5566 36.5979 52.7712 27.6206Z" fill="#7700FF"/>
</svg>
