<svg width="95" height="95" viewBox="0 0 95 95" fill="none" xmlns="http://www.w3.org/2000/svg">
<rect x="0.959717" y="0.289551" width="93.7632" height="93.7632" rx="26" fill="white"/>
<path d="M24.8601 31.1091C24.8601 27.7954 27.5464 25.1091 30.8601 25.1091H63.9032C67.2169 25.1091 69.9032 27.7954 69.9032 31.1091V64.1522C69.9032 67.466 67.2169 70.1522 63.9032 70.1522H30.8601C27.5464 70.1522 24.8601 67.466 24.8601 64.1522V31.1091Z" fill="#7000FF"/>
<path fillRule="evenodd" clip-rule="evenodd" d="M59.332 45.3328C63.9282 45.3328 64.8475 49.0098 64.8475 49.0098L61.6301 50.8482C61.1705 49.929 60.7108 49.4694 59.332 49.4694C57.9531 49.4694 57.0339 50.1113 57.0339 51.3079C57.0339 52.2271 58.3999 52.9391 60.0789 53.6374C62.7551 54.7505 66.2263 56.9335 66.2263 60.5003C66.2263 63.272 63.7472 66.0158 58.8724 66.0158C53.9975 66.0158 52.1033 62.7984 51.5184 61.8792L55.1954 60.0407C56.5742 61.8792 57.0339 62.3388 58.8724 62.3388C61.6301 62.3388 61.6301 60.5003 61.6301 60.5003C61.6301 58.5365 59.9424 58.0669 58.0509 57.1512C55.6397 55.9839 52.8972 54.6563 52.8972 51.3079C52.8972 48.0905 54.7357 45.3328 59.332 45.3328Z" fill="white"/>
<path d="M34.9719 45.7924H50.5991V49.4694H44.624V66.0158H40.4874V49.4694H34.9719V45.7924Z" fill="white"/>
</svg>
