<svg width="172" height="46" viewBox="0 0 172 46" fill="none" xmlns="http://www.w3.org/2000/svg">
<path d="M71.3262 27.1093V32.2613H55.2283V13.0027H70.9547V18.1547H61.5436V20.3627H70.4594V24.9013H61.5436V27.1093H71.3262Z" fill="white"/>
<path d="M81.1087 17.7867C88.91 17.7867 88.91 24.288 88.91 24.288H82.4709C82.4709 24.288 82.347 22.816 80.7373 22.816C79.2513 22.816 78.8798 23.92 78.8798 25.392C78.8798 26.7413 79.2513 27.8453 80.7373 27.8453C82.347 27.8453 82.4709 26.3733 82.4709 26.3733H88.91C88.91 26.3733 88.91 32.752 80.8611 32.752C75.0411 32.752 72.4495 29.6454 72.4406 25.2693C72.4316 20.8215 75.1649 17.7867 81.1087 17.7867Z" fill="white"/>
<path d="M113.8 27.4773H107.485C107.485 27.4773 107.237 32.752 115.905 32.752C119.504 32.752 123.83 31.648 123.83 28.0907C123.83 22.4749 113.8 24.5333 113.8 22.6933C113.8 22.08 115.038 21.9573 115.533 21.9573C117.391 21.9573 117.391 23.0613 117.391 23.0613H123.582C123.582 23.0613 123.706 17.7867 115.533 17.7867C111.959 17.7867 107.608 18.784 107.608 22.3253C107.608 28.0907 117.639 26.0053 117.639 27.8453C117.639 28.575 116.642 28.5813 115.905 28.5813C113.676 28.5813 113.8 27.4773 113.8 27.4773Z" fill="white"/>
<path d="M130.517 18.2773H123.83L128.536 31.648C128.536 32.5067 127.297 33.12 126.678 33.12C125.986 33.12 124.945 32.752 124.945 32.752V37.6587C124.945 37.6587 127.05 38.0267 128.536 38.0267C133.984 38.0267 135.594 34.592 136.585 32.016L141.042 18.2773H134.603L132.622 26.2507L130.517 18.2773Z" fill="white"/>
<path d="M156.893 23.0613H150.701C150.701 23.0613 150.577 21.9573 148.968 21.9573C148.101 21.9573 147.234 21.9004 147.234 22.6933C147.234 24.5333 157.264 22.3253 157.264 28.2133C157.264 31.7962 152.832 32.752 149.215 32.752C140.547 32.752 140.795 27.4773 140.795 27.4773H147.11C147.11 27.4773 147.11 28.5813 149.215 28.5813L149.256 28.5813C150.006 28.5816 150.949 28.5819 150.949 27.8453C150.949 25.8827 141.042 28.2133 141.042 22.3253C141.042 18.784 145.393 17.7867 148.968 17.7867C157.264 17.7867 156.893 23.0613 156.893 23.0613Z" fill="white"/>
<path d="M160.979 18.2773H157.883V23.4293H160.855V26.9867C160.855 30.2987 162.465 32.752 167.914 32.752C169.152 32.752 172 32.384 172 32.384V27.3547C172 27.3547 170.42 27.6 169.4 27.6C167.914 27.6 167.047 27.4773 167.047 26.2507V23.4293H172V18.2773H167.047V14.1067H163.084L160.979 18.2773Z" fill="white"/>
<path fill-rule="evenodd" clip-rule="evenodd" d="M40.0115 20.8099C41.1045 19.3573 42.5976 17.3729 42.5976 14.1067C42.5976 4.17067 29.3478 3.78005e-06 23.2801 0C10.4229 -8.0098e-06 -0.0342027 10.325 8.40746e-05 23.0613C0.0341885 35.73 10.3675 46 23.1563 46C31.9482 46 42.5976 40.112 42.5976 31.8933C42.5976 28.0701 41.0313 26.1605 39.9328 24.8212C39.3396 24.0979 38.8827 23.5409 38.8827 22.9387C38.8827 22.3101 39.3804 21.6486 40.0115 20.8099ZM36.5457 18.5085C35.6063 19.6681 34.6615 20.8344 34.6725 23.0613C34.683 25.2081 35.5613 26.1953 36.4611 27.2067C37.4122 28.2758 38.3874 29.372 38.3874 31.8933C38.3874 37.536 29.5955 41.7067 23.1563 41.7067C12.7268 41.7067 4.27857 33.3926 4.21029 23.0613C4.14134 12.6285 12.7481 4.17068 23.2801 4.17067C30.2146 4.17066 38.3874 8.70934 38.3874 14.1067C38.3874 16.235 37.4691 17.3685 36.5457 18.5085ZM22.9086 19.6267C24.7894 19.6605 26.2863 21.1983 26.2521 23.0613C26.2185 24.8902 24.7549 26.3401 22.9086 26.3733C21.0279 26.4072 19.4756 24.9244 19.4414 23.0613C19.4066 21.1647 20.9941 19.5922 22.9086 19.6267ZM30.7099 17.664C31.8063 17.664 32.5674 16.928 32.5674 15.5787C32.5674 13.0027 26.7474 10.5493 23.2801 10.5493C15.7265 10.5493 10.5256 16.1172 10.5256 23.0613C10.5256 30.0055 16.2701 35.5733 23.2801 35.5733C27.3665 35.5733 32.6912 32.5067 32.6912 30.4213C32.6912 29.5627 32.1959 28.3196 30.5861 28.2133C30.0611 28.1787 29.4974 28.6128 28.7725 29.1711C27.5523 30.1109 25.8752 31.4027 23.1563 31.4027C18.5746 31.4027 14.7698 27.668 14.7358 23.0613C14.7017 18.4207 18.4715 14.72 23.1563 14.72C26.1208 14.72 27.4441 15.7746 28.5067 16.6214C29.2195 17.1894 29.815 17.664 30.7099 17.664Z" fill="white"/>
<path fill-rule="evenodd" clip-rule="evenodd" d="M98.445 17.7867C102.903 17.7867 106.742 20.1173 106.742 25.2693C106.742 30.4213 103.027 32.752 98.445 32.752C93.6156 32.752 89.9007 30.544 89.9007 25.2693C89.9007 19.9947 93.9871 17.7867 98.445 17.7867ZM100.302 25.2693C100.302 23.92 99.6833 22.6933 98.3211 22.6933C96.8352 22.6933 96.3398 23.975 96.3398 25.2693C96.3398 26.5636 97.1384 27.8453 98.445 27.8453C99.6833 27.8453 100.302 26.6187 100.302 25.2693Z" fill="white"/>
</svg>
