<svg width="200" height="47" viewBox="0 0 200 47" fill="none" xmlns="http://www.w3.org/2000/svg">
<path d="M185.738 10.9247V10.9807C183.716 9.45937 181.337 8.55602 178.861 8.36965C176.385 8.18323 173.909 8.72096 171.703 9.92395C169.497 11.1269 167.647 12.9487 166.355 15.1896C165.064 17.4305 164.381 20.0041 164.381 22.6283C164.381 25.2525 165.064 27.8261 166.355 30.067C167.647 32.3079 169.497 34.1297 171.703 35.3327C173.909 36.5356 176.385 37.0734 178.861 36.887C181.337 36.7005 183.716 35.7972 185.738 34.2759V36.9231H191.425V6.55175L185.738 10.9247ZM177.905 30.9211C176.365 30.9236 174.859 30.4476 173.573 29.5523C172.287 28.657 171.279 27.3818 170.673 25.8854C170.067 24.389 169.891 22.7373 170.166 21.1357C170.441 19.5341 171.155 18.0532 172.219 16.8772C173.283 15.7013 174.651 14.882 176.153 14.5214C177.654 14.1609 179.222 14.2748 180.663 14.8491C182.104 15.4234 183.353 16.4327 184.255 17.7515C185.157 19.0704 185.673 20.6406 185.738 22.2668V22.9541C185.659 25.0948 184.799 27.1198 183.339 28.6049C181.878 30.0901 179.931 30.9201 177.905 30.9211ZM162.805 36.918V28.2739L151.538 36.918H162.805ZM200 0L194.294 4.36785V10.4105L199.995 6.02741L200 0ZM194.294 14.1726L194.285 36.918H199.971L199.995 9.78946L194.294 14.1726Z" fill="white"/>
<path d="M72.7043 8.26685C70.0573 8.26685 67.4698 9.0988 65.269 10.6575C63.0676 12.2162 61.352 14.4316 60.3386 17.0237C59.3251 19.6159 59.0596 22.4683 59.5754 25.2204C60.0912 27.9726 61.3649 30.5009 63.2359 32.4856C65.1069 34.4704 67.4913 35.8226 70.0873 36.3712C72.6829 36.9199 75.3742 36.6403 77.8201 35.5679C80.266 34.4955 82.3572 32.6784 83.8292 30.3464C85.3013 28.0143 86.0878 25.272 86.0897 22.4661C86.0911 20.6019 85.7455 18.7557 85.0734 17.033C84.4013 15.3104 83.4155 13.745 82.1728 12.4263C80.9296 11.1077 79.4533 10.0616 77.8287 9.34791C76.2042 8.63421 74.4628 8.26685 72.7043 8.26685ZM72.7043 30.6925C71.1656 30.6935 69.6616 30.2107 68.3822 29.305C67.1028 28.3993 66.1055 27.1116 65.5168 25.6049C64.9276 24.0981 64.7742 22.44 65.0745 20.8406C65.3753 19.2411 66.117 17.7722 67.2053 16.6197C68.294 15.4672 69.6807 14.6829 71.1899 14.3662C72.6991 14.0495 74.2631 14.2146 75.6836 14.8405C77.1041 15.4665 78.3178 16.5252 79.1706 17.8827C80.0234 19.2401 80.4772 20.8352 80.4743 22.4661C80.4705 24.6484 79.6506 26.74 78.1938 28.2822C76.7371 29.8244 74.7631 30.6912 72.7043 30.6925ZM43.102 8.26685C40.7736 8.26877 38.486 8.91451 36.4649 10.1403C34.4439 11.3661 32.7596 13.1296 31.5781 15.2565C30.3967 17.3834 29.7591 19.8002 29.7282 22.2682C29.6974 24.7362 30.2744 27.1701 31.4024 29.3294C32.5303 31.4887 34.1701 33.2988 36.1598 34.5808C38.1495 35.8629 40.4203 36.5726 42.7478 36.6398C45.0754 36.7071 47.3792 36.1295 49.432 34.9642C51.4846 33.7989 53.215 32.0862 54.452 29.9952L49.5755 27.0139C48.7889 28.271 47.6911 29.2747 46.4029 29.9154C45.1145 30.5561 43.6848 30.8092 42.2699 30.647C40.855 30.4848 39.5094 29.9136 38.3801 28.9957C37.2507 28.0779 36.381 26.8487 35.8659 25.4423H56.1966C56.6185 23.3725 56.598 21.2288 56.1366 19.1684C55.6752 17.1081 54.7842 15.1834 53.5291 13.5358C52.274 11.8881 50.6871 10.5592 48.8843 9.64655C47.0818 8.73396 45.1093 8.26079 43.1116 8.2618L43.102 8.26685ZM43.102 14.2144C44.6691 14.2157 46.1992 14.7192 47.4914 15.6588C48.7837 16.5985 49.7776 17.9304 50.3429 19.4797H35.8659C35.9422 19.2607 36.028 19.0485 36.1234 18.843C36.7609 17.4561 37.7531 16.2868 38.9869 15.4685C40.2208 14.6501 41.6466 14.2156 43.102 14.2144ZM13.4998 8.26685C10.6829 8.26236 7.93736 9.20537 5.65828 10.9602L3.50842 9.22694C3.30829 9.07009 3.06611 8.9851 2.81722 8.98439H0.0286012L0 46.9231H5.62968V33.9518C7.33936 35.263 9.31723 36.1272 11.402 36.4737C13.4867 36.8203 15.6192 36.6395 17.6255 35.946C19.6317 35.2525 21.4548 34.0661 22.9461 32.4834C24.4374 30.9008 25.5546 28.9668 26.2064 26.8393C26.8584 24.7118 27.0265 22.451 26.6971 20.2415C26.3678 18.032 25.5503 15.9363 24.3114 14.1255C23.0725 12.3147 21.4473 10.84 19.5683 9.8219C17.6894 8.8037 15.61 8.2709 13.4998 8.26685ZM13.4998 30.6925C11.9613 30.6935 10.457 30.2107 9.17756 29.305C7.89809 28.3993 6.90086 27.1116 6.31205 25.6049C5.7233 24.0981 5.56952 22.44 5.87012 20.8406C6.17071 19.2411 6.91225 17.7722 8.00081 16.6197C9.08938 15.4672 10.476 14.6829 11.9852 14.3662C13.4945 14.0495 15.0585 14.2146 16.4791 14.8405C17.8998 15.4665 19.1133 16.5252 19.9661 17.8827C20.8189 19.2401 21.2726 20.8352 21.2698 22.4661C21.2673 24.6488 20.4475 26.7412 18.9906 28.2837C17.5337 29.8262 15.5589 30.6925 13.4998 30.6925ZM102.359 8.26685C99.5585 8.2614 96.8276 9.19334 94.5557 10.9298L92.4249 9.22694C92.2251 9.06944 91.9825 8.98439 91.7337 8.98439H88.9451L88.9165 46.9231H94.5509V33.9972C96.2651 35.2966 98.2443 36.1488 100.327 36.4842C102.411 36.8196 104.539 36.6289 106.54 35.9276C108.541 35.2263 110.357 34.0342 111.841 32.4483C113.325 30.8624 114.434 28.9275 115.08 26.8011C115.725 24.6746 115.887 22.4167 115.554 20.2111C115.221 18.0055 114.401 15.9145 113.161 14.1083C111.921 12.302 110.297 10.8315 108.42 9.81649C106.543 8.80142 104.466 8.27049 102.359 8.26685ZM102.359 30.6925C100.82 30.6966 99.3144 30.2162 98.0331 29.3124C96.7518 28.4085 95.7521 27.1218 95.1611 25.6154C94.57 24.1089 94.4146 22.4504 94.7134 20.8499C95.0123 19.2495 95.7526 17.7791 96.8409 16.625C97.9287 15.471 99.3154 14.6853 100.825 14.3674C102.335 14.0494 103.899 14.2136 105.321 14.8391C106.742 15.4646 107.957 16.5233 108.81 17.8811C109.663 19.2389 110.118 20.8346 110.115 22.4661C110.112 24.6462 109.294 26.7363 107.84 28.2783C106.387 29.8204 104.415 30.6885 102.359 30.6925ZM153.536 25.4373C154.248 21.986 153.724 18.3773 152.064 15.3136C150.404 12.2499 147.728 9.95055 144.557 8.86322C141.386 7.77589 137.947 7.97842 134.909 9.43129C131.871 10.8842 129.452 13.4835 128.123 16.7232C126.793 19.9629 126.649 23.6111 127.717 26.9575C128.786 30.304 130.99 33.1092 133.903 34.827C136.815 36.5449 140.226 37.0524 143.472 36.2507C146.718 35.4492 149.566 33.3958 151.463 30.4904L146.92 27.0139C146.133 28.271 145.036 29.2748 143.747 29.9154C142.459 30.5559 141.029 30.8086 139.615 30.6459C138.2 30.4832 136.855 29.9112 135.726 28.9926C134.597 28.0739 133.729 26.844 133.215 25.4373H153.536ZM140.451 14.2144C142.018 14.2157 143.548 14.7192 144.84 15.6588C146.133 16.5985 147.127 17.9304 147.692 19.4797H133.215C133.291 19.2607 133.377 19.0485 133.472 18.843C134.11 17.4561 135.102 16.2868 136.336 15.4685C137.57 14.6501 138.996 14.2156 140.451 14.2144ZM118.59 0H124.225V36.6451H118.59V0Z" fill="white"/>
</svg>
