<svg width="90" height="105" viewBox="0 0 90 105" fill="none" xmlns="http://www.w3.org/2000/svg">
<path d="M24.8593 37.9924C24.8593 37.9924 25.3973 37.4535 26.2042 37.4535C27.3743 37.4535 28.2889 38.3966 28.2889 39.6091C28.2889 40.1418 27.8182 40.889 27.8182 40.889L23.1781 44.796C23.1781 44.796 22.2014 45.537 22.1694 47.0863C22.1318 48.9051 23.1781 49.5114 23.1781 49.5114L42.8144 66.2173C42.8144 66.2173 43.4868 66.8909 44.9664 66.8909C46.7821 66.8909 47.7235 65.8131 47.7235 65.8131L66.7547 49.7135C66.7547 49.7135 67.8138 48.9725 67.8306 47.2211C67.8475 45.4696 66.7547 44.6613 66.7547 44.6613L47.3201 28.2922C47.3201 28.2922 46.6476 27.5512 45.1009 27.5512C43.3524 27.5512 42.7472 28.2922 42.7472 28.2922L37.0984 33.075C37.0984 33.075 36.5604 33.6842 35.6189 33.6812C34.4299 33.6775 33.4616 32.6471 33.5342 31.4583C33.5878 30.5825 34.2067 30.0436 34.2067 30.0436L40.528 24.722C40.528 24.722 42.3437 23.3748 45.1009 23.3748C47.4545 23.3748 49.3375 24.5873 49.3375 24.5873L69.2428 41.2932C69.2428 41.2932 72 43.3814 72 47.2211C72 50.1176 70.1843 52.2059 70.1843 52.2059L49.8755 69.3833C49.8755 69.3833 47.9925 71 45.1009 71C42.2092 71 40.1918 69.3833 40.1918 69.3833L20.5554 52.8121C20.5554 52.8121 18.0673 50.9934 18.0672 47.0863C18.0672 44.1898 20.2192 41.8994 20.2192 41.8994L24.8593 37.9924Z" fill="white"/>
<path d="M53.3724 37.723C53.3724 37.723 53.7758 37.3861 54.4483 37.3861C55.726 37.3861 56.4658 38.4639 56.4658 39.6091C56.4658 40.4848 55.9278 40.889 55.9278 40.889L49.6737 46.2106C49.6737 46.2106 48.0598 47.6926 45.1009 47.6926C42.142 47.6926 40.1918 46.0759 40.1918 46.0759L20.3537 29.3027C20.3537 29.3027 18 27.1471 18 23.7116C18 20.6798 20.1519 18.592 20.1519 18.592L40.259 1.6167C40.259 1.6167 42.0075 0 45.1009 0C47.9253 0 49.741 1.6167 49.741 1.6167L69.1083 17.851C69.1083 17.851 72 19.9393 72 23.9137C72 26.945 70.1171 28.8985 70.1171 28.8985L65.2752 33.075C65.2752 33.075 64.4101 33.6363 63.7958 33.6139C62.6446 33.5718 61.7783 32.6122 61.7783 31.4583C61.7783 30.5825 62.5181 29.9089 62.5181 29.9089L66.8219 26.2713C66.8219 26.2713 67.8979 25.3956 67.8979 23.9137C67.8979 22.1622 66.8219 21.3539 66.8219 21.3539L47.7235 5.32163C47.7235 5.32163 46.7148 4.17647 45.1009 4.17647C43.3524 4.17647 42.5455 5.11954 42.5455 5.11954L23.7161 21.0171C23.7161 21.0171 22.1694 21.8928 22.1694 23.8463C22.1694 25.5304 23.2453 26.3387 23.2453 26.3387L42.4782 42.5731C42.4782 42.5731 43.3524 43.5303 44.9664 43.5161C46.5803 43.5019 47.6563 42.5731 47.6563 42.5731L53.3724 37.723Z" fill="white"/>
<path d="M4.875 93.165C3.6 93.165 2.61 92.865 1.875 92.265C1.14 91.665 0.675 90.84 0.495 89.775L2.61 89.28C2.7 89.85 2.955 90.315 3.39 90.645C3.825 90.975 4.335 91.125 4.95 91.125C5.46 91.125 5.865 91.02 6.15 90.78C6.45 90.54 6.6 90.24 6.6 89.895C6.6 89.355 6.12 88.89 5.355 88.755L3.81 88.44C2.925 88.275 2.205 87.9 1.68 87.36C1.155 86.805 0.9 86.115 0.9 85.305C0.9 84.345 1.35 83.46 2.04 82.86C2.745 82.275 3.735 81.9 4.77 81.9C5.97 81.9 6.99 82.26 7.62 82.815C8.25 83.4 8.61 84.075 8.715 84.81L6.66 85.41C6.465 84.51 5.835 83.925 4.74 83.925C4.29 83.925 3.915 84.045 3.6 84.285C3.3 84.525 3.15 84.81 3.15 85.125C3.15 85.68 3.525 86.115 4.275 86.265L5.805 86.55C6.795 86.73 7.56 87.105 8.1 87.69C8.625 88.275 8.895 88.965 8.895 89.76C8.895 90.615 8.52 91.44 7.875 92.1C7.2 92.745 6.135 93.165 4.875 93.165ZM12.0815 93.15C11.4065 93.15 10.8215 92.94 10.3415 92.535C9.84648 92.115 9.60648 91.575 9.60648 90.915V90.855C9.60648 89.79 10.2515 89.175 11.1065 88.875C11.7065 88.65 12.2615 88.575 12.8915 88.575H13.6115C14.0015 88.575 14.1965 88.38 14.1965 88.065C14.1965 87.54 13.7765 87.135 13.0265 87.135C12.3665 87.135 11.8565 87.525 11.6915 88.155L9.77148 87.72C9.86148 87.21 10.0715 86.775 10.4165 86.415C10.7465 86.055 11.1515 85.785 11.6315 85.62C12.0965 85.455 12.5915 85.365 13.1315 85.365C14.9765 85.35 16.3415 86.4 16.3415 88.38V91.8C16.3415 92.25 16.3715 92.655 16.4015 93H14.3765C14.3465 92.805 14.3315 92.505 14.3315 92.07H14.3015C13.7915 92.775 13.0565 93.15 12.0815 93.15ZM12.7115 91.56C13.1615 91.56 13.5215 91.41 13.7915 91.125C14.0615 90.855 14.1965 90.51 14.1965 90.12V89.94H12.8915C12.6215 89.94 12.3815 90.015 12.1565 90.165C11.9165 90.315 11.7965 90.525 11.7965 90.795C11.7965 91.29 12.2015 91.56 12.7115 91.56ZM17.7736 93V81.615H19.9636V93H17.7736ZM24.4477 85.545H26.3677V87.39H24.4477V93H22.2727V87.39H20.8477V85.545H22.2727V84.81C22.2577 83.28 23.0077 81.585 25.1977 81.585C25.6927 81.585 26.0977 81.645 26.4427 81.75V83.535C26.2627 83.475 26.0527 83.46 25.7677 83.46C24.8827 83.46 24.4477 83.865 24.4477 84.69V85.545ZM26.3281 89.295C26.3281 88.56 26.5231 87.9 26.8831 87.3C27.2431 86.7 27.7381 86.22 28.3681 85.875C28.9981 85.545 29.6731 85.365 30.4231 85.365C31.1581 85.365 31.8481 85.53 32.4631 85.875C33.0781 86.205 33.5731 86.67 33.9331 87.27C34.2931 87.855 34.4731 88.515 34.4731 89.25C34.4731 89.985 34.2931 90.645 33.9331 91.245C33.5581 91.86 33.0631 92.325 32.4481 92.655C31.8181 93 31.1281 93.165 30.3931 93.165C29.6431 93.165 28.9681 93 28.3381 92.67C27.7231 92.325 27.2431 91.875 26.8831 91.275C26.5231 90.675 26.3281 90.015 26.3281 89.295ZM29.0881 87.9C28.7431 88.26 28.5631 88.71 28.5631 89.265C28.5631 89.82 28.7431 90.27 29.0881 90.63C29.4481 90.99 29.8831 91.17 30.4081 91.17C30.9181 91.17 31.3531 90.99 31.7131 90.63C32.0731 90.285 32.2381 89.82 32.2381 89.265C32.2381 88.71 32.0731 88.26 31.7131 87.9C31.3531 87.54 30.9181 87.36 30.3931 87.36C29.8831 87.36 29.4481 87.54 29.0881 87.9ZM40.1266 85.545V87.675C39.9316 87.645 39.7066 87.615 39.4366 87.615C38.3566 87.615 37.6666 88.38 37.6666 89.73V93H35.5216V85.545H37.5916V86.625H37.6066C37.9966 85.815 38.7166 85.47 39.5416 85.47C39.7366 85.47 39.9316 85.5 40.1266 85.545ZM48.1187 93H46.0037V92.055H45.9737C45.4787 92.775 44.7137 93.15 43.6637 93.15C42.6137 93.15 41.6687 92.67 41.0687 91.95C40.4687 91.245 40.1087 90.27 40.1087 89.265C40.1087 87.375 41.5487 85.395 43.6937 85.395C43.9787 85.395 44.2337 85.425 44.6687 85.545C45.1037 85.665 45.5537 85.965 45.9137 86.4H45.9437V81.63H48.1187V93ZM45.4787 90.63C45.8237 90.27 46.0037 89.82 46.0037 89.265C46.0037 88.71 45.8237 88.26 45.4787 87.9C45.1187 87.54 44.6837 87.375 44.1587 87.375C43.6487 87.375 43.2137 87.54 42.8537 87.9C42.4937 88.26 42.3137 88.71 42.3137 89.265C42.3137 89.82 42.4937 90.27 42.8537 90.63C43.1987 90.99 43.6337 91.17 44.1587 91.17C44.6837 91.17 45.1187 90.99 45.4787 90.63ZM61.8648 93H59.2098L58.4448 92.13C57.5148 92.82 56.6448 93.15 55.8048 93.15C53.9748 93.15 52.2498 92.235 52.2498 90.135C52.2498 89.04 52.9098 88.095 54.1998 87.255L53.7948 86.775C53.2548 86.16 52.9698 85.425 52.9698 84.825C52.9698 84.03 53.2698 83.325 53.8698 82.755C54.4848 82.17 55.2348 81.885 56.1348 81.885C57.7698 81.84 59.3598 83.205 59.3148 84.75C59.3148 85.8 58.8648 86.58 57.7998 87.21L57.1398 87.6L58.6548 89.325C59.0748 88.74 59.3598 88.17 59.5248 87.6H61.5648C61.4748 88.065 61.2798 88.575 60.9948 89.13C60.6948 89.7 60.3348 90.225 59.8998 90.75L61.8648 93ZM56.1798 83.85C55.8648 83.85 55.5948 83.94 55.3848 84.15C55.1748 84.345 55.0698 84.57 55.0698 84.825C55.0698 85.095 55.1448 85.305 55.4748 85.695L55.9398 86.22L56.7348 85.74C57.0948 85.53 57.2598 85.23 57.2598 84.825C57.2598 84.57 57.1698 84.345 56.9598 84.15C56.7348 83.955 56.4798 83.85 56.1798 83.85ZM55.9398 91.2C56.3598 91.2 56.7798 91.05 57.2448 90.75L55.3998 88.635C54.7698 89.04 54.4398 89.475 54.4398 89.91C54.4398 90.39 54.6498 90.75 54.9648 90.93C55.2798 91.11 55.5948 91.2 55.9398 91.2ZM70.849 93.15C69.364 93.15 67.954 92.58 66.919 91.62C66.409 91.14 66.004 90.54 65.689 89.835C65.389 89.13 65.224 88.365 65.224 87.54C65.224 86.745 65.389 85.995 65.689 85.275C66.004 84.585 66.424 83.985 66.934 83.49C67.444 82.995 68.059 82.605 68.749 82.32C69.439 82.05 70.159 81.9 70.909 81.9C72.094 81.9 73.174 82.23 73.924 82.725C74.299 82.95 74.629 83.235 74.914 83.55C75.499 84.18 75.829 84.81 75.994 85.44L73.849 86.175C73.759 85.755 73.369 85.11 72.694 84.63C72.259 84.33 71.599 84.105 70.879 84.105C70.264 84.105 69.694 84.255 69.184 84.57C68.674 84.87 68.269 85.29 67.999 85.8C67.714 86.325 67.564 86.895 67.564 87.525C67.564 88.77 68.149 89.865 69.169 90.495C69.679 90.81 70.249 90.975 70.879 90.975C71.599 90.975 72.259 90.75 72.694 90.435C72.904 90.285 73.099 90.105 73.279 89.91C73.624 89.505 73.804 89.13 73.894 88.785L76.054 89.535C75.919 90.105 75.619 90.72 75.019 91.38C74.719 91.71 74.374 92.01 73.999 92.265C73.624 92.52 73.159 92.73 72.604 92.91C72.049 93.075 71.479 93.15 70.849 93.15ZM76.456 89.295C76.456 88.56 76.651 87.9 77.011 87.3C77.371 86.7 77.866 86.22 78.496 85.875C79.126 85.545 79.801 85.365 80.551 85.365C81.286 85.365 81.976 85.53 82.591 85.875C83.206 86.205 83.701 86.67 84.061 87.27C84.421 87.855 84.601 88.515 84.601 89.25C84.601 89.985 84.421 90.645 84.061 91.245C83.686 91.86 83.191 92.325 82.576 92.655C81.946 93 81.256 93.165 80.521 93.165C79.771 93.165 79.096 93 78.466 92.67C77.851 92.325 77.371 91.875 77.011 91.275C76.651 90.675 76.456 90.015 76.456 89.295ZM79.216 87.9C78.871 88.26 78.691 88.71 78.691 89.265C78.691 89.82 78.871 90.27 79.216 90.63C79.576 90.99 80.011 91.17 80.536 91.17C81.046 91.17 81.481 90.99 81.841 90.63C82.201 90.285 82.366 89.82 82.366 89.265C82.366 88.71 82.201 88.26 81.841 87.9C81.481 87.54 81.046 87.36 80.521 87.36C80.011 87.36 79.576 87.54 79.216 87.9ZM86.8345 93.165C86.4145 93.165 86.0695 93.015 85.7695 92.715C85.4695 92.43 85.3195 92.07 85.3195 91.665C85.3195 91.245 85.4695 90.885 85.7695 90.585C86.0695 90.3 86.4145 90.15 86.8345 90.15C87.2545 90.15 87.6145 90.3 87.9145 90.585C88.1995 90.885 88.3495 91.245 88.3495 91.665C88.3495 92.07 88.1995 92.43 87.9145 92.715C87.6145 93.015 87.2545 93.165 86.8345 93.165Z" fill="white"/>
<path d="M7.906 102.794C7.906 103.682 7.12 104 6.352 104H4.51V99.626H6.322C6.682 99.626 7.018 99.722 7.282 99.908C7.546 100.094 7.72 100.4 7.72 100.784C7.72 101.192 7.516 101.504 7.108 101.72V101.726C7.378 101.828 7.576 101.96 7.714 102.128C7.84 102.29 7.906 102.512 7.906 102.794ZM6.832 100.922C6.832 100.562 6.502 100.46 6.196 100.46H5.392V101.402H6.136C6.316 101.402 6.46 101.378 6.604 101.312C6.748 101.246 6.832 101.108 6.832 100.922ZM7.024 102.674C7.024 102.35 6.79 102.188 6.31 102.188H5.392V103.16H6.34C6.52 103.16 6.664 103.13 6.802 103.064C6.94 102.998 7.024 102.86 7.024 102.674ZM11.8863 104H9.1143V99.626H10.0143V103.136H11.8863V104ZM12.3119 101.816C12.3119 101.51 12.3719 101.216 12.4919 100.934C12.6119 100.652 12.7739 100.412 12.9779 100.214C13.1819 100.01 13.4279 99.854 13.7099 99.734C13.9919 99.62 14.2859 99.56 14.5919 99.56C14.9039 99.56 15.1979 99.614 15.4799 99.734C15.7559 99.848 15.9959 100.004 16.1999 100.202C16.3979 100.4 16.5599 100.64 16.6799 100.916C16.7939 101.192 16.8539 101.486 16.8539 101.798C16.8539 102.11 16.7939 102.404 16.6739 102.68C16.5539 102.962 16.3919 103.208 16.1879 103.406C15.9839 103.61 15.7439 103.772 15.4619 103.886C15.1799 104.006 14.8859 104.066 14.5739 104.066C13.3139 104.066 12.3119 103.082 12.3119 101.816ZM13.4159 101.12C13.3019 101.33 13.2419 101.564 13.2419 101.81C13.2419 102.056 13.3019 102.29 13.4159 102.5C13.5359 102.71 13.6979 102.878 13.9019 103.004C14.1119 103.13 14.3399 103.19 14.5859 103.19C14.8319 103.19 15.0599 103.13 15.2639 103.004C15.4739 102.878 15.6359 102.71 15.7559 102.5C15.8699 102.29 15.9299 102.056 15.9299 101.81C15.9479 101.066 15.3239 100.424 14.5859 100.436C14.3399 100.436 14.1119 100.496 13.9019 100.622C13.6979 100.742 13.5359 100.91 13.4159 101.12ZM20.0334 104.06C19.4394 104.06 18.8754 103.832 18.4614 103.448C18.2574 103.256 18.0954 103.016 17.9694 102.734C17.8494 102.452 17.7834 102.146 17.7834 101.816C17.7834 101.498 17.8494 101.198 17.9694 100.91C18.0954 100.634 18.2634 100.394 18.4674 100.196C18.6714 99.998 18.9174 99.842 19.1934 99.728C19.4694 99.62 19.7574 99.56 20.0574 99.56C20.5314 99.56 20.9634 99.692 21.2634 99.89C21.4134 99.98 21.5454 100.094 21.6594 100.22C21.8934 100.472 22.0254 100.724 22.0914 100.976L21.2334 101.27C21.1974 101.102 21.0414 100.844 20.7714 100.652C20.5974 100.532 20.3334 100.442 20.0454 100.442C19.7994 100.442 19.5714 100.502 19.3674 100.628C19.1634 100.748 19.0014 100.916 18.8934 101.12C18.7794 101.33 18.7194 101.558 18.7194 101.81C18.7194 102.308 18.9534 102.746 19.3614 102.998C19.5654 103.124 19.7934 103.19 20.0454 103.19C20.3334 103.19 20.5974 103.1 20.7714 102.974C20.8554 102.914 20.9334 102.842 21.0054 102.764C21.1434 102.602 21.2154 102.452 21.2514 102.314L22.1154 102.614C22.0614 102.842 21.9414 103.088 21.7014 103.352C21.5814 103.484 21.4434 103.604 21.2934 103.706C21.1434 103.808 20.9574 103.892 20.7354 103.964C20.5134 104.03 20.2854 104.06 20.0334 104.06ZM25.6922 104L24.1202 101.924V104H23.2202V99.626H24.1202V101.528L25.6202 99.626H26.7482L25.0802 101.72L26.8562 104H25.6922ZM29.1658 104.06C28.5718 104.06 28.0078 103.832 27.5938 103.448C27.3898 103.256 27.2278 103.016 27.1018 102.734C26.9818 102.452 26.9158 102.146 26.9158 101.816C26.9158 101.498 26.9818 101.198 27.1018 100.91C27.2278 100.634 27.3958 100.394 27.5998 100.196C27.8038 99.998 28.0498 99.842 28.3258 99.728C28.6018 99.62 28.8898 99.56 29.1898 99.56C29.6638 99.56 30.0958 99.692 30.3958 99.89C30.5458 99.98 30.6778 100.094 30.7918 100.22C31.0258 100.472 31.1578 100.724 31.2238 100.976L30.3658 101.27C30.3298 101.102 30.1738 100.844 29.9038 100.652C29.7298 100.532 29.4658 100.442 29.1778 100.442C28.9318 100.442 28.7038 100.502 28.4998 100.628C28.2958 100.748 28.1338 100.916 28.0258 101.12C27.9118 101.33 27.8518 101.558 27.8518 101.81C27.8518 102.308 28.0858 102.746 28.4938 102.998C28.6978 103.124 28.9258 103.19 29.1778 103.19C29.4658 103.19 29.7298 103.1 29.9038 102.974C29.9878 102.914 30.0658 102.842 30.1378 102.764C30.2758 102.602 30.3478 102.452 30.3838 102.314L31.2478 102.614C31.1938 102.842 31.0738 103.088 30.8338 103.352C30.7138 103.484 30.5758 103.604 30.4258 103.706C30.2758 103.808 30.0898 103.892 29.8678 103.964C29.6458 104.03 29.4178 104.06 29.1658 104.06ZM35.0886 104V102.23H33.2526V104H32.3526V99.626H33.2526V101.354H35.0886V99.626H35.9886V104H35.0886ZM40.4488 104L40.1008 103.064H38.2168L37.8688 104H36.9448L38.6188 99.626H39.7048L41.3848 104H40.4488ZM39.1528 100.502L38.5168 102.224H39.7888L39.1528 100.502ZM42.3346 104V99.626H43.2406V104H42.3346ZM47.5143 104L45.6063 100.994V104H44.7123V99.626H45.7623L47.6463 102.584V99.626H48.5403V104H47.5143ZM53.3043 104.066C52.7943 104.066 52.3983 103.946 52.1043 103.706C51.8103 103.466 51.6243 103.136 51.5523 102.71L52.3983 102.512C52.4343 102.74 52.5363 102.926 52.7103 103.058C52.8843 103.19 53.0883 103.25 53.3343 103.25C53.5383 103.25 53.7003 103.208 53.8143 103.112C53.9343 103.016 53.9943 102.896 53.9943 102.758C53.9943 102.542 53.8023 102.356 53.4963 102.302L52.8783 102.176C52.5243 102.11 52.2363 101.96 52.0263 101.744C51.8163 101.522 51.7143 101.246 51.7143 100.922C51.7143 100.538 51.8943 100.184 52.1703 99.944C52.4523 99.71 52.8483 99.56 53.2623 99.56C53.7423 99.56 54.1503 99.704 54.4023 99.926C54.6543 100.16 54.7983 100.43 54.8403 100.724L54.0183 100.964C53.9403 100.604 53.6883 100.37 53.2503 100.37C53.0703 100.37 52.9203 100.418 52.7943 100.514C52.6743 100.61 52.6143 100.724 52.6143 100.85C52.6143 101.072 52.7643 101.246 53.0643 101.306L53.6763 101.42C54.0723 101.492 54.3783 101.642 54.5943 101.876C54.8043 102.11 54.9123 102.386 54.9123 102.704C54.9123 103.046 54.7623 103.376 54.5043 103.64C54.2343 103.898 53.8083 104.066 53.3043 104.066ZM55.8529 101.816C55.8529 101.51 55.9129 101.216 56.0329 100.934C56.1529 100.652 56.3149 100.412 56.5189 100.214C56.7229 100.01 56.9689 99.854 57.2509 99.734C57.5329 99.62 57.8269 99.56 58.1329 99.56C58.4449 99.56 58.7389 99.614 59.0209 99.734C59.2969 99.848 59.5369 100.004 59.7409 100.202C59.9389 100.4 60.1009 100.64 60.2209 100.916C60.3349 101.192 60.3949 101.486 60.3949 101.798C60.3949 102.11 60.3349 102.404 60.2149 102.68C60.0949 102.962 59.9329 103.208 59.7289 103.406C59.5249 103.61 59.2849 103.772 59.0029 103.886C58.7209 104.006 58.4269 104.066 58.1149 104.066C56.8549 104.066 55.8529 103.082 55.8529 101.816ZM56.9569 101.12C56.8429 101.33 56.7829 101.564 56.7829 101.81C56.7829 102.056 56.8429 102.29 56.9569 102.5C57.0769 102.71 57.2389 102.878 57.4429 103.004C57.6529 103.13 57.8809 103.19 58.1269 103.19C58.3729 103.19 58.6009 103.13 58.8049 103.004C59.0149 102.878 59.1769 102.71 59.2969 102.5C59.4109 102.29 59.4709 102.056 59.4709 101.81C59.4889 101.066 58.8649 100.424 58.1269 100.436C57.8809 100.436 57.6529 100.496 57.4429 100.622C57.2389 100.742 57.0769 100.91 56.9569 101.12ZM64.3664 104H61.5944V99.626H62.4944V103.136H64.3664V104ZM67.7766 99.626H68.6706V102.236C68.6706 102.806 68.5206 103.25 68.2206 103.574C67.9266 103.898 67.4826 104.06 66.9066 104.06C66.3126 104.06 65.8566 103.88 65.5746 103.562C65.2926 103.244 65.1606 102.806 65.1606 102.266V99.626H66.0666L66.0606 102.248C66.0606 102.554 66.1386 102.788 66.3006 102.95C66.4566 103.112 66.6606 103.19 66.9126 103.19C67.1826 103.19 67.3986 103.106 67.5486 102.944C67.6986 102.776 67.7766 102.548 67.7766 102.266V99.626ZM71.918 100.502V104H71.012V100.502H69.704V99.626H73.226V100.502H71.918ZM74.3057 104V99.626H75.2117V104H74.3057ZM76.4134 101.816C76.4134 101.51 76.4734 101.216 76.5934 100.934C76.7134 100.652 76.8754 100.412 77.0794 100.214C77.2834 100.01 77.5294 99.854 77.8114 99.734C78.0934 99.62 78.3874 99.56 78.6934 99.56C79.0054 99.56 79.2994 99.614 79.5814 99.734C79.8574 99.848 80.0974 100.004 80.3014 100.202C80.4994 100.4 80.6614 100.64 80.7814 100.916C80.8954 101.192 80.9554 101.486 80.9554 101.798C80.9554 102.11 80.8954 102.404 80.7754 102.68C80.6554 102.962 80.4934 103.208 80.2894 103.406C80.0854 103.61 79.8454 103.772 79.5634 103.886C79.2814 104.006 78.9874 104.066 78.6754 104.066C77.4154 104.066 76.4134 103.082 76.4134 101.816ZM77.5174 101.12C77.4034 101.33 77.3434 101.564 77.3434 101.81C77.3434 102.056 77.4034 102.29 77.5174 102.5C77.6374 102.71 77.7994 102.878 78.0034 103.004C78.2134 103.13 78.4414 103.19 78.6874 103.19C78.9334 103.19 79.1614 103.13 79.3654 103.004C79.5754 102.878 79.7374 102.71 79.8574 102.5C79.9714 102.29 80.0314 102.056 80.0314 101.81C80.0494 101.066 79.4254 100.424 78.6874 100.436C78.4414 100.436 78.2134 100.496 78.0034 100.622C77.7994 100.742 77.6374 100.91 77.5174 101.12ZM84.9569 104L83.0489 100.994V104H82.1549V99.626H83.2049L85.0889 102.584V99.626H85.9829V104H84.9569Z" fill="white"/>
</svg>
