<svg width="170" height="57" viewBox="0 0 170 57" fill="none" xmlns="http://www.w3.org/2000/svg">
<g clip-path="url(#clip0_216_327)">
<path d="M0 0H62.5287V57H0V0ZM56.0258 51.072V5.928H6.50299V51.072H56.0258ZM12.1306 14.706V31.92C12.1306 39.786 16.8828 44.46 24.8864 44.46C33.1402 44.46 37.8924 39.786 37.8924 31.92V14.706H31.3894V31.92C31.3894 36.366 29.2635 38.874 25.0115 38.874C20.5094 38.874 18.5085 36.252 18.5085 31.92V14.706H12.1306ZM46.2713 18.24C48.5223 18.24 50.2731 16.758 50.2731 14.706C50.2731 12.54 48.6474 11.058 46.2713 11.058C44.0202 11.058 42.2694 12.54 42.2694 14.706C42.2694 16.758 44.0202 18.24 46.2713 18.24ZM43.0198 20.976V44.118H49.5228V20.976H43.0198ZM81.7876 34.656C88.7908 34.656 93.4179 30.894 93.4179 24.624C93.4179 18.582 88.9159 14.706 81.7876 14.706H69.532V44.232H76.0349V34.77H81.7876V34.656ZM81.0372 29.982H75.9099V19.494H81.0372C84.789 19.494 86.7899 21.432 86.7899 24.624C86.7899 28.044 84.789 29.982 81.0372 29.982ZM95.5439 32.604C95.5439 39.558 100.421 44.46 107.299 44.46C111.426 44.46 114.052 43.092 115.553 40.926V44.232H122.056V20.976H115.553V24.624C113.927 22.23 111.301 20.748 107.299 20.748C100.296 20.748 95.5439 25.764 95.5439 32.604ZM115.553 32.604C115.553 36.594 112.802 39.216 108.8 39.216C104.423 39.216 102.172 36.366 102.172 32.604C102.172 28.5 104.673 25.878 108.8 25.878C112.927 25.878 115.553 28.614 115.553 32.604ZM138.314 39.102C135.812 39.102 135.187 38.076 135.187 36.024V25.992H140.815V20.976H135.187V14.592H128.684V20.976H125.683V25.992H128.684V36.024C128.684 41.496 131.31 44.118 137.563 44.118H140.94V39.102H138.314ZM150.944 24.282V13.338H144.441V44.232H150.944V31.92C150.944 27.93 153.195 25.536 157.072 25.536C160.824 25.536 162.825 27.816 162.825 31.35V44.118H169.328V30.78C169.328 24.738 164.576 20.748 158.573 20.748C154.821 20.748 152.445 22.002 150.944 24.282Z" fill="white"/>
</g>
<defs>
<clipPath id="clip0_216_327">
<rect width="170" height="57" fill="white"/>
</clipPath>
</defs>
</svg>
