<svg width="24" height="24" viewBox="0 0 24 24" fill="none" xmlns="http://www.w3.org/2000/svg">
<path d="M14.92 6.30858L3.63923 16.7187C3.31204 17.0103 3.05107 17.3591 2.87153 17.7448C2.69199 18.1305 2.59749 18.5454 2.59354 18.9651C2.58959 19.3849 2.67626 19.8011 2.84851 20.1896C3.02075 20.5782 3.27512 20.9311 3.59677 21.2279C3.91841 21.5248 4.3009 21.7595 4.7219 21.9185C5.14291 22.0774 5.594 22.1574 6.04886 22.1537C6.50372 22.1501 6.95323 22.0629 7.37118 21.8972C7.78913 21.7315 8.16713 21.4907 8.48314 21.1888L19.7639 10.7786C22.9216 7.86829 22.6774 4.19106 20.6215 2.35623C18.5656 0.521413 14.92 0.113247 11.2009 3.14725L0.923828 12.6313" stroke="black"/>
</svg>
