<svg width="245" height="38" viewBox="0 0 245 38" fill="none" xmlns="http://www.w3.org/2000/svg">
<g clip-path="url(#clip0_216_326)">
<path fill-rule="evenodd" clip-rule="evenodd" d="M88.4565 20.7921L85.094 32.2966H81.5967L76.9089 15.4598H80.75L83.5355 27.6528H83.6338L86.9471 15.4598H90.0763L93.3896 27.6528H93.4878L96.2858 15.4598H100.127L95.4267 32.2966H91.9293L88.567 20.7921H88.4565ZM105.232 30.0331C106.79 30.0331 108.079 29.0646 108.079 27.7111V26.801L105.305 26.9643C103.968 27.0577 103.207 27.6295 103.207 28.5163C103.207 29.4497 104.017 30.0331 105.232 30.0331ZM104.054 32.4951C101.55 32.4951 99.6481 30.9548 99.6481 28.7029C99.6481 26.4277 101.489 25.1092 104.765 24.9226L108.079 24.7358V23.9074C108.079 22.7406 107.22 22.0638 105.87 22.0638C104.532 22.0638 103.685 22.694 103.514 23.6157H100.237C100.372 21.1887 102.544 19.5202 106.029 19.5202C109.404 19.5202 111.601 21.177 111.601 23.6973V32.2966H108.14V30.3831H108.066C107.33 31.7132 105.698 32.4951 104.054 32.4951ZM113.994 32.2966V15.4598H117.577V32.2966H113.994ZM120.08 32.2966V15.4598H123.664V32.2966H120.08ZM131.984 22.0405C130.413 22.0405 129.284 23.1723 129.161 24.7358H134.745C134.671 23.1374 133.579 22.0405 131.984 22.0405ZM134.794 28.4695H138.083C137.69 30.9199 135.334 32.565 132.082 32.565C128.032 32.565 125.602 30.103 125.602 26.101C125.602 22.1106 128.057 19.5202 131.947 19.5202C135.776 19.5202 138.193 21.9822 138.193 25.7859V26.8243H129.125V27.0344C129.125 28.8196 130.315 30.0447 132.143 30.0447C133.456 30.0447 134.463 29.4264 134.794 28.4695ZM140.991 16.9066H144.574V19.7886H147.004V22.3555H144.574V28.3413C144.574 29.298 145.065 29.753 146.121 29.753C146.44 29.753 146.771 29.7297 146.992 29.6948V32.2034C146.624 32.285 146.01 32.3434 145.286 32.3434C142.194 32.3434 140.991 31.3632 140.991 28.9247V22.3555H139.138V19.7886H140.991V16.9066ZM157.104 32.5883C151.95 32.5883 148.722 29.3096 148.722 23.8725C148.722 18.4468 151.974 15.1681 157.104 15.1681C161.362 15.1681 164.602 17.735 164.884 21.5038H161.276C160.932 19.4386 159.264 18.0851 157.104 18.0851C154.306 18.0851 152.502 20.3137 152.502 23.8606C152.502 27.4545 154.281 29.6714 157.116 29.6714C159.313 29.6714 160.896 28.4462 161.288 26.451H164.896C164.479 30.2081 161.448 32.5883 157.104 32.5883ZM172.909 32.565C168.934 32.565 166.393 30.1381 166.393 26.0309C166.393 21.9822 168.969 19.5202 172.909 19.5202C176.848 19.5202 179.426 21.9705 179.426 26.0309C179.426 30.1498 176.885 32.565 172.909 32.565ZM172.909 29.963C174.664 29.963 175.78 28.5512 175.78 26.0426C175.78 23.5573 174.652 22.1222 172.909 22.1222C171.168 22.1222 170.026 23.5573 170.026 26.0426C170.026 28.5512 171.142 29.963 172.909 29.963ZM181.267 32.2966V19.7886H184.727V22.0172H184.801C185.5 20.4654 186.887 19.5553 188.912 19.5553C191.832 19.5553 193.476 21.3054 193.476 24.2341V32.2966H189.893V24.9459C189.893 23.3124 189.083 22.3788 187.476 22.3788C185.868 22.3788 184.85 23.499 184.85 25.1209V32.2966H181.267ZM195.747 32.2966V19.7886H199.207V22.0172H199.281C199.98 20.4654 201.367 19.5553 203.392 19.5553C206.312 19.5553 207.958 21.3054 207.958 24.2341V32.2966H204.374V24.9459C204.374 23.3124 203.563 22.3788 201.956 22.3788C200.349 22.3788 199.33 23.499 199.33 25.1209V32.2966H195.747ZM216.131 22.0405C214.559 22.0405 213.431 23.1723 213.308 24.7358H218.891C218.818 23.1374 217.726 22.0405 216.131 22.0405ZM218.94 28.4695H222.23C221.837 30.9199 219.481 32.565 216.228 32.565C212.178 32.565 209.748 30.103 209.748 26.101C209.748 22.1106 212.203 19.5202 216.094 19.5202C219.922 19.5202 222.339 21.9822 222.339 25.7859V26.8243H213.271V27.0344C213.271 28.8196 214.462 30.0447 216.29 30.0447C217.602 30.0447 218.609 29.4264 218.94 28.4695ZM236.132 24.4441H232.807C232.599 23.1257 231.679 22.1922 230.206 22.1922C228.438 22.1922 227.335 23.6157 227.335 26.0309C227.335 28.493 228.438 29.8931 230.218 29.8931C231.654 29.8931 232.586 29.0764 232.807 27.7111H236.146C235.961 30.6631 233.642 32.565 230.181 32.565C226.218 32.565 223.701 30.1148 223.701 26.0309C223.701 22.0172 226.218 19.5202 230.156 19.5202C233.716 19.5202 235.973 21.6087 236.132 24.4441ZM238.832 16.9066H242.416V19.7886H244.846V22.3555H242.416V28.3413C242.416 29.298 242.906 29.753 243.962 29.753C244.281 29.753 244.612 29.7297 244.834 29.6948V32.2034C244.464 32.285 243.852 32.3434 243.128 32.3434C240.035 32.3434 238.832 31.3632 238.832 28.9247V22.3555H236.98V19.7886H238.832V16.9066Z" fill="white"/>
<path d="M13.3498 7.43062C23.9654 -2.4516 41.1764 -2.4516 51.792 7.43062L53.0695 8.61997C53.6003 9.11408 53.6003 9.91519 53.0695 10.4093L48.6991 14.4778C48.4337 14.7249 48.0034 14.7249 47.7381 14.4778L45.98 12.8411C38.5744 5.94704 26.5674 5.94704 19.1618 12.8411L17.279 14.5939C17.0135 14.8409 16.5833 14.8409 16.3179 14.5939L11.9476 10.5254C11.4168 10.0313 11.4168 9.23014 11.9476 8.73603L13.3498 7.43062ZM60.8303 15.8447L64.7199 19.4657C65.2507 19.9597 65.2507 20.7609 64.7199 21.2551L47.1813 37.5825C46.6505 38.0766 45.7899 38.0766 45.2591 37.5825L32.8113 25.9944C32.6786 25.871 32.4633 25.871 32.3307 25.9944L19.883 37.5825C19.3522 38.0766 18.4918 38.0766 17.961 37.5825L0.421761 21.2548C-0.109012 20.7608 -0.109012 19.9596 0.421761 19.4654L4.31142 15.8445C4.84219 15.3504 5.70275 15.3504 6.23352 15.8445L18.6815 27.4328C18.8143 27.5562 19.0295 27.5562 19.1621 27.4328L31.6096 15.8445C32.1404 15.3504 33.0008 15.3504 33.5316 15.8445V15.8445L45.9798 27.4328C46.1125 27.5562 46.3276 27.5562 46.4602 27.4328L58.9082 15.8447C59.4388 15.3506 60.2995 15.3506 60.8303 15.8447Z" fill="white"/>
</g>
<defs>
<clipPath id="clip0_216_326">
<rect width="245" height="38" fill="white"/>
</clipPath>
</defs>
</svg>
