R<svg width="200" height="105" viewBox="0 0 200 105" fill="none" xmlns="http://www.w3.org/2000/svg">
<path d="M66.3596 37.5654C65.44 38.3352 64.0607 37.1036 65.1335 36.0259L81.9915 20.6302L66.3596 37.5654Z" fill="white"/>
<path d="M62.988 46.4949L100.076 12.3165L65.7466 49.4201C63.7543 52.0374 59.9229 49.1122 62.988 46.4949Z" fill="white"/>
<path d="M64.0607 56.1942L117.7 6.7741L68.5051 59.8892C65.2868 63.5841 60.8424 58.9654 64.0607 56.1942Z" fill="white"/>
<path d="M69.1182 65.2777L138.543 0L73.7158 69.1266C70.6507 72.5136 66.0531 68.5108 69.1182 65.2777Z" fill="white"/>
<path d="M78.4668 70.5122L132.413 20.9381L82.9112 74.3611C79.3863 77.5942 75.8614 72.9755 78.4668 70.5122Z" fill="white"/>
<path d="M90.2674 71.5899L127.509 37.2575L93.026 74.669C90.8805 76.8244 87.6621 73.8992 90.2674 71.5899Z" fill="white"/>
<path d="M101.762 70.2043L118.773 54.6546L103.141 71.7438C102.221 72.5136 100.689 71.4359 101.762 70.2043Z" fill="white"/>
<path d="M4.44441 104.845L0 90.8345H3.37162L6.43673 100.534L9.6551 90.8345H12.7202L15.9386 100.534L19.1569 90.8345H22.2221L17.6244 104.845H14.2528L11.0344 95.4532L7.96929 104.845H4.44441Z" fill="white"/>
<path fillRule="evenodd" clip-rule="evenodd" d="M25.4404 104.845L31.5706 90.8345H34.789L41.0725 104.845H37.7009L36.4748 101.919H30.0381L28.6588 104.845H25.4404ZM35.402 99.3021L33.2565 94.0676L31.1109 99.3021H35.402Z" fill="white"/>
<path fillRule="evenodd" clip-rule="evenodd" d="M48.7353 104.845V100.996H51.6471L54.4057 104.845H57.9306L54.7122 100.38C56.398 99.61 57.6241 97.8095 57.6241 95.9151C57.6241 94.0206 56.0915 90.8345 52.4134 90.8345H45.5169V104.845H48.7353ZM48.7353 93.4518V98.2244H52.1069C55.0187 98.2244 55.0187 93.4518 52.1069 93.4518H48.7353Z" fill="white"/>
<path fillRule="evenodd" clip-rule="evenodd" d="M63.1413 104.845H70.8041C75.2485 103.767 77.0875 101.304 77.0875 97.9165C77.0875 94.3755 75.0952 91.6043 70.8041 90.8345H63.1413V104.845ZM66.3597 102.073V93.4518H70.3443C75.0952 94.3755 75.2485 100.996 70.3443 102.073H66.3597Z" fill="white"/>
<path d="M82.6047 104.845H85.8231V90.8345H82.6047V104.845Z" fill="white"/>
<path d="M92.1066 104.845H102.834V102.227H95.1717V98.9942H101.608V96.5309H95.1717V93.4518H102.528V90.8345H92.1066V104.845Z" fill="white"/>
<path fillRule="evenodd" clip-rule="evenodd" d="M111.57 104.845V100.996H114.788L117.24 104.845H120.765L117.7 100.38C119.539 99.1482 120.459 98.2244 120.459 95.9151C120.459 93.4518 119.233 91.6043 115.708 90.8345H108.352V104.845H111.57ZM111.57 93.4518V98.2244H115.555C117.394 97.6086 118.16 94.8374 115.555 93.4518H111.57Z" fill="white"/>
<path d="M136.857 104.845V102.227H129.194V98.9942H135.631V96.5309L129.194 96.3769V93.4518H136.551V90.8345H125.976V104.845H136.857Z" fill="white"/>
<path d="M150.957 104.845H154.175V90.8345H150.957V104.845Z" fill="white"/>
<path d="M160.459 104.845H163.677V96.3769L170.727 104.845H173.332V90.8345H170.114V99.1482L163.217 90.8345H160.459V104.845Z" fill="white"/>
<path d="M189.884 94.9913L192.029 92.9899C192.029 92.9899 189.884 90.5123 186.359 90.5266C182.252 90.5432 178.696 93.2978 178.696 97.7625C178.696 102.227 182.068 104.999 186.359 104.999C190.65 104.999 192.029 102.535 192.029 102.535L189.884 100.688C189.884 100.688 188.658 102.227 186.359 102.227C183.904 102.227 181.914 100.228 181.914 97.7625C181.914 95.2967 183.904 93.3127 186.359 93.2978C188.813 93.2829 189.884 94.9913 189.884 94.9913Z" fill="white"/>
<path d="M198.006 101.15C199.064 101.107 199.956 101.934 199.998 102.997C200.042 104.102 199.106 105.043 198.006 104.999C196.948 104.956 196.125 104.06 196.167 102.997C196.208 101.978 196.991 101.19 198.006 101.15Z" fill="white"/>
</svg>
