<svg width="509" height="340" viewBox="0 0 509 340" fill="none" xmlns="http://www.w3.org/2000/svg">
<g clip-path="url(#clip0_1113_1451)">
<mask id="mask0_1113_1451" style="mask-type:luminance" maskUnits="userSpaceOnUse" x="0" y="0" width="509" height="340">
<path d="M473 0H36C16.1177 0 0 16.1177 0 36V304C0 323.882 16.1177 340 36 340H473C492.882 340 509 323.882 509 304V36C509 16.1177 492.882 0 473 0Z" fill="white"/>
</mask>
<g mask="url(#mask0_1113_1451)">
<path d="M509 0H0V340H509V0Z" fill="#34C759"/>
<g opacity="0.197475">
<path d="M331.582 221.556L246.955 132.629L245.381 132.687L219.388 133.408L219.972 159.348L219.977 160.68L304.37 249.36L304.442 247.62L304.519 228.097C304.512 224.525 307.412 221.61 310.984 221.603L329.687 221.577L331.582 221.556Z" fill="white"/>
<path d="M337.411 228.047L310.996 228.082L310.894 254.019L310.87 255.603C327.691 270.051 348.941 277.948 371.281 277.948C386.459 277.948 401.081 274.329 414.162 267.5L412.433 267.085L394.961 263.646C391.452 262.977 389.139 259.578 389.808 256.069L393.745 235.493L393.982 234.055C387.078 237.271 379.385 239.068 371.281 239.068C359.345 239.068 347.946 235.189 338.591 228.042L337.411 228.047Z" fill="#65E485"/>
<path d="M417.534 104.602C403.616 96.5769 387.777 92.3027 371.281 92.3027C347.112 92.3027 324.225 101.543 306.837 118.32L306.538 118.608L305.343 119.873L306.515 119.941L325.4 120.284C328.971 120.358 331.817 123.323 331.745 126.894L331.285 147.655L331.271 149.044L334.11 146.034C344.179 136.454 357.363 131.183 371.281 131.183C379.035 131.183 386.413 132.828 393.083 135.787L394.344 135.724L420.711 132.632L417.818 106.791L417.534 104.602Z" fill="#65E485"/>
<path d="M401.418 229.843C415.77 220.14 425.223 203.715 425.223 185.125C425.223 167.082 416.319 151.08 402.674 141.282L403.846 141.134L421.468 139.067C425.015 138.648 427.561 135.42 427.142 131.872L424.806 110.993L424.642 109.146C428.979 112.206 433.085 115.66 436.916 119.49C454.448 137.022 464.103 160.332 464.103 185.125C464.103 209.919 454.448 233.229 436.916 250.761C432.533 255.144 427.789 259.035 422.75 262.405L420.749 262.12L396.172 257.284L401.189 231.069L401.418 229.843Z" fill="#65E485"/>
<path d="M240.922 126.291L233.557 118.552L233.252 118.258C215.871 101.521 193.008 92.3027 168.872 92.3027C144.078 92.3027 120.769 101.958 103.237 119.49C100.598 122.128 98.1387 124.897 95.8633 127.782L96.2304 129.111L102.621 154.3L128.226 147.947L130.306 147.445C140.107 137.417 153.776 131.183 168.872 131.183C182.767 131.183 195.936 136.44 205.999 145.993L213.318 153.683L213.314 151.398L212.914 133.594C212.813 130.023 215.635 127.034 219.206 126.932L239.422 126.371L240.922 126.291Z" fill="white"/>
<path d="M121.282 210.507C130.377 227.489 148.298 239.068 168.872 239.068C182.789 239.068 195.974 233.796 206.043 224.216L219.96 209.396L220.892 209.368L247.851 209.524L247.837 235.051L247.826 236.886L233.615 251.642L233.316 251.931C215.927 268.708 193.041 277.948 168.872 277.948C144.078 277.948 120.769 268.292 103.237 250.76C96.2628 243.787 90.5355 235.899 86.166 227.367L87.6078 227.735L108.337 233.294C111.788 234.217 115.347 232.158 116.27 228.707L120.739 212.387L121.282 210.507Z" fill="white"/>
<path d="M117.183 200.572C115.717 195.677 114.929 190.491 114.929 185.125C114.929 174.335 118.113 164.276 123.591 155.836L121.589 156.267L104.218 160.576C100.756 161.457 97.2213 159.358 96.3403 155.896L91.5104 136.856L90.9068 134.694C81.2354 149.581 76.0498 166.954 76.0498 185.125C76.0498 197.184 78.3337 208.892 82.697 219.755L85.0878 220.35L110.013 227.035L116.761 202.389L117.183 200.572Z" fill="white"/>
<path d="M298.671 183.618L324.616 156.102L324.632 155.377L325.266 126.761L300.119 126.305L299.258 126.316L271.455 155.754L241.345 186.624L226.054 202.908L227.295 202.928L247.849 203.047C251.421 203.047 254.33 205.953 254.331 209.525L254.32 228.421L254.345 230.119L268.863 215.046L298.671 183.618Z" fill="#65E485"/>
</g>
<path d="M331.582 206.556L246.955 117.629L245.381 117.687L219.388 118.408L219.972 144.348L219.977 145.68L304.37 234.36L304.442 232.62L304.519 213.097C304.512 209.525 307.412 206.61 310.984 206.603L329.687 206.577L331.582 206.556Z" fill="white"/>
<path d="M337.411 213.047L310.996 213.082L310.894 239.019L310.87 240.603C327.691 255.051 348.941 262.948 371.281 262.948C386.459 262.948 401.081 259.329 414.162 252.5L412.433 252.085L394.961 248.646C391.452 247.977 389.139 244.578 389.808 241.069L393.745 220.493L393.982 219.055C387.078 222.271 379.385 224.068 371.281 224.068C359.345 224.068 347.946 220.189 338.591 213.042L337.411 213.047Z" fill="#65E485"/>
<path d="M417.534 89.6018C403.616 81.5769 387.777 77.3027 371.281 77.3027C347.112 77.3027 324.225 86.5426 306.837 103.32L306.538 103.608L305.343 104.873L306.515 104.941L325.4 105.284C328.971 105.358 331.817 108.323 331.745 111.894L331.285 132.655L331.271 134.044L334.11 131.034C344.179 121.454 357.363 116.183 371.281 116.183C379.035 116.183 386.413 117.828 393.083 120.787L394.344 120.724L420.711 117.632L417.818 91.791L417.534 89.6018Z" fill="#65E485"/>
<path d="M401.418 214.843C415.77 205.14 425.223 188.715 425.223 170.125C425.223 152.082 416.319 136.08 402.674 126.282L403.846 126.134L421.468 124.067C425.015 123.648 427.561 120.42 427.142 116.872L424.806 95.9933L424.642 94.1465C428.979 97.206 433.085 100.66 436.916 104.49C454.448 122.022 464.103 145.332 464.103 170.125C464.103 194.919 454.448 218.229 436.916 235.761C432.533 240.144 427.789 244.035 422.75 247.405L420.749 247.12L396.172 242.284L401.189 216.069L401.418 214.843Z" fill="#65E485"/>
<path d="M240.922 111.291L233.557 103.552L233.252 103.258C215.871 86.5205 193.008 77.3027 168.872 77.3027C144.078 77.3027 120.769 86.9583 103.237 104.49C100.598 107.128 98.1387 109.897 95.8633 112.782L96.2304 114.111L102.621 139.3L128.226 132.947L130.306 132.445C140.107 122.417 153.776 116.183 168.872 116.183C182.767 116.183 195.936 121.44 205.999 130.993L213.318 138.683L213.314 136.398L212.914 118.594C212.813 115.023 215.635 112.034 219.206 111.932L239.422 111.371L240.922 111.291Z" fill="white"/>
<path d="M121.282 195.507C130.377 212.489 148.298 224.068 168.872 224.068C182.789 224.068 195.974 218.796 206.043 209.216L219.96 194.396L220.892 194.368L247.851 194.524L247.837 220.051L247.826 221.886L233.615 236.642L233.316 236.931C215.927 253.708 193.041 262.948 168.872 262.948C144.078 262.948 120.769 253.292 103.237 235.76C96.2628 228.787 90.5355 220.899 86.166 212.367L87.6078 212.735L108.337 218.294C111.788 219.217 115.347 217.158 116.27 213.707L120.739 197.387L121.282 195.507Z" fill="white"/>
<path d="M117.183 185.572C115.717 180.677 114.929 175.491 114.929 170.125C114.929 159.335 118.113 149.276 123.591 140.836L121.589 141.267L104.218 145.576C100.756 146.457 97.2213 144.358 96.3403 140.896L91.5104 121.856L90.9068 119.694C81.2354 134.581 76.0498 151.954 76.0498 170.125C76.0498 182.184 78.3337 193.892 82.697 204.755L85.0878 205.35L110.013 212.035L116.761 187.389L117.183 185.572Z" fill="white"/>
<path d="M298.671 168.618L324.616 141.102L324.632 140.377L325.266 111.761L300.119 111.305L299.258 111.316L271.455 140.754L241.345 171.624L226.054 187.908L227.295 187.928L247.849 188.047C251.421 188.047 254.33 190.953 254.331 194.525L254.32 213.421L254.345 215.119L268.863 200.046L298.671 168.618Z" fill="#65E485"/>
<path fillRule="evenodd" clip-rule="evenodd" d="M386.928 176.198L390.175 180.49C390.778 181.306 390.702 182.436 389.993 183.16L383.729 189.399C383.015 190.127 381.87 190.218 381.047 189.611L376.713 186.368C375.629 186.778 374.506 187.08 373.362 187.272L371.244 192.201C370.844 193.138 369.808 193.634 368.822 193.362L360.267 191.069C359.273 190.807 358.628 189.852 358.76 188.838L359.385 183.529C358.485 182.793 357.662 181.969 356.928 181.069L351.574 181.71C350.551 181.812 349.604 181.155 349.343 180.164L347.045 171.674C346.784 170.688 347.281 169.661 348.216 169.252L353.179 167.159C353.349 166.01 353.65 164.884 354.078 163.804L350.831 159.511C350.214 158.687 350.3 157.538 351.032 156.817L357.276 150.604C357.989 149.875 359.135 149.785 359.958 150.392L364.286 153.632C365.371 153.222 366.494 152.919 367.638 152.728L369.756 147.799C370.154 146.863 371.187 146.367 372.172 146.637L380.727 148.929C381.725 149.188 382.375 150.144 382.246 151.162L381.618 156.474C382.518 157.208 383.34 158.032 384.073 158.932L389.428 158.291C390.451 158.19 391.397 158.846 391.658 159.837L393.959 168.325C394.22 169.31 393.724 170.337 392.789 170.748L387.827 172.843C387.655 173.992 387.354 175.117 386.928 176.198ZM361.198 167.508C359.828 172.62 362.881 177.88 368.017 179.256C373.151 180.626 378.421 177.599 379.796 172.491C381.166 167.379 378.113 162.119 372.977 160.743C367.842 159.367 362.568 162.395 361.198 167.508Z" fill="#65E485"/>
</g>
</g>
<defs>
<clipPath id="clip0_1113_1451">
<rect width="509" height="340" fill="white"/>
</clipPath>
</defs>
</svg>
