<svg width="509" height="340" viewBox="0 0 509 340" fill="none" xmlns="http://www.w3.org/2000/svg">
<g clip-path="url(#clip0_1113_1420)">
<mask id="mask0_1113_1420" style="mask-type:luminance" maskUnits="userSpaceOnUse" x="0" y="0" width="509" height="340">
<path d="M473 0H36C16.1177 0 0 16.1177 0 36V304C0 323.882 16.1177 340 36 340H473C492.882 340 509 323.882 509 304V36C509 16.1177 492.882 0 473 0Z" fill="white"/>
</mask>
<g mask="url(#mask0_1113_1420)">
<path d="M509 0H0V340H509V0Z" fill="#FF9933"/>
<path d="M384.878 140H154.122C146.875 140 141 145.875 141 153.122V284.878C141 292.125 146.875 298 154.122 298H384.878C392.125 298 398 292.125 398 284.878V153.122C398 145.875 392.125 140 384.878 140Z" fill="#FFB366"/>
<path d="M394.42 107H138.58C130.528 107 124 113.528 124 121.58V268.42C124 276.472 130.528 283 138.58 283H394.42C402.472 283 409 276.472 409 268.42V121.58C409 113.528 402.472 107 394.42 107Z" fill="#FFCB97"/>
<path d="M408.8 62H124.2C115.253 62 108 69.253 108 78.2V245.8C108 254.747 115.253 262 124.2 262H408.8C417.747 262 425 254.747 425 245.8V78.2C425 69.253 417.747 62 408.8 62Z" fill="white"/>
<path d="M326 92H202C200.343 92 199 93.3431 199 95C199 96.6569 200.343 98 202 98H326C327.657 98 329 96.6569 329 95C329 93.3431 327.657 92 326 92Z" fill="#F6F6F6"/>
<path d="M272 106H202C200.343 106 199 107.343 199 109C199 110.657 200.343 112 202 112H272C273.657 112 275 110.657 275 109C275 107.343 273.657 106 272 106Z" fill="#F6F6F6"/>
<path d="M272 120H202C200.343 120 199 121.343 199 123C199 124.657 200.343 126 202 126H272C273.657 126 275 124.657 275 123C275 121.343 273.657 120 272 120Z" fill="#F6F6F6"/>
<path d="M337 146H202V235H337V146Z" fill="white" stroke="#F6F6F6" stroke-width="3"/>
<path d="M251.777 211.013C251.567 211.134 251.332 211.219 251.077 211.258C249.936 211.433 248.842 210.627 248.632 209.458L247.553 203.431C247.394 202.548 247.787 201.677 248.538 201.243L256.339 196.74C257.333 196.165 258.622 196.538 259.219 197.571C259.815 198.604 259.493 199.907 258.499 200.481L251.945 204.264L252.762 208.825C252.925 209.733 252.506 210.592 251.777 211.013Z" fill="#FFCC33"/>
<path d="M255.818 193.568C255.526 193.737 255.187 193.834 254.823 193.836L246.341 193.891C245.574 193.897 244.852 193.475 244.458 192.791L241.218 187.179C240.621 186.146 240.944 184.843 241.938 184.269C242.932 183.695 244.222 184.067 244.818 185.1L247.418 189.604L254.657 189.557C255.816 189.549 256.792 190.5 256.837 191.682C256.869 192.492 256.455 193.201 255.818 193.568Z" fill="#FFCC33"/>
<path d="M261.738 218.565C261.528 218.686 261.292 218.771 261.037 218.81C259.897 218.984 258.802 218.178 258.593 217.01L257.513 210.982C257.381 210.241 257.636 209.496 258.185 209.018L263.187 204.672C264.054 203.917 265.381 204.044 266.15 204.954C266.919 205.864 266.839 207.213 265.971 207.967L261.857 211.543L262.723 216.377C262.885 217.284 262.467 218.144 261.738 218.565Z" fill="#FFCC33"/>
<path d="M294.635 186.361C293.877 186.798 292.908 186.765 292.21 186.206L288.702 183.399L281.892 187.33C280.859 187.927 279.558 187.606 278.985 186.614C278.412 185.622 278.785 184.334 279.818 183.738L287.924 179.058C288.704 178.608 289.67 178.669 290.349 179.212L294.985 182.923C295.883 183.642 295.991 184.961 295.225 185.868C295.053 186.07 294.853 186.235 294.635 186.361Z" fill="#FFCC33"/>
<path d="M277.792 181.86C277.111 182.252 276.238 182.261 275.509 181.807C274.446 181.144 274.094 179.745 274.724 178.684L278.656 172.048L275.91 167.291C275.279 166.199 275.63 164.817 276.692 164.204C277.754 163.591 279.126 163.978 279.756 165.07L283.179 170.999C283.596 171.721 283.597 172.607 283.18 173.309L278.573 181.084C278.375 181.419 278.104 181.68 277.792 181.86Z" fill="#FFCC33"/>
<path d="M294.096 198.249L290.271 195.079L284.946 196.943C283.823 197.336 282.587 196.736 282.185 195.603C281.783 194.47 282.367 193.231 283.491 192.839L289.963 190.573C290.675 190.324 291.469 190.468 292.055 190.955L296.824 194.908C297.749 195.675 297.888 197.044 297.135 197.967C296.966 198.173 296.768 198.34 296.55 198.465C295.795 198.901 294.814 198.844 294.096 198.249Z" fill="#FFCC33"/>
<path d="M257.647 180.28C257.179 180.551 256.608 180.642 256.045 180.491L252.198 179.46C251.071 179.159 250.402 178 250.705 176.874C251.006 175.747 252.164 175.078 253.291 175.381L257.138 176.411C258.264 176.713 258.933 177.871 258.631 178.998C258.48 179.561 258.115 180.01 257.647 180.28Z" fill="#FF9933"/>
<path d="M266.64 175.088C266.172 175.359 265.601 175.45 265.037 175.299C263.911 174.997 263.242 173.839 263.544 172.713L264.575 168.866C264.876 167.739 266.035 167.07 267.161 167.373C268.288 167.674 268.957 168.832 268.655 169.959L267.624 173.806C267.473 174.369 267.108 174.818 266.64 175.088Z" fill="#FF9933"/>
<path fillRule="evenodd" clip-rule="evenodd" d="M280.35 180.382C279.678 179.602 279.611 178.494 278.862 177.805C272.835 172.262 265.409 170.718 259.943 173.874C254.478 177.029 252.101 184.232 253.888 192.224C254.11 193.216 255.037 193.829 255.376 194.801L280.35 180.382Z" fill="#FFCC33"/>
<path fillRule="evenodd" clip-rule="evenodd" d="M276.598 179.5L256.489 191.11C255.113 191.905 254.474 193.557 254.975 195.066C255.497 196.636 256.187 198.168 257.04 199.645C259.607 204.091 263.362 207.523 267.611 209.308C272.06 211.177 276.525 211.043 280.183 208.931C283.841 206.819 286.19 203.019 286.796 198.232C287.375 193.659 286.281 188.691 283.714 184.245C282.861 182.768 281.879 181.404 280.78 180.167C279.724 178.979 277.974 178.706 276.598 179.5Z" fill="#FF9933"/>
<path d="M202 150C204.209 150 206 148.209 206 146C206 143.791 204.209 142 202 142C199.791 142 198 143.791 198 146C198 148.209 199.791 150 202 150Z" fill="#DCDCDC"/>
<path d="M202 239C204.209 239 206 237.209 206 235C206 232.791 204.209 231 202 231C199.791 231 198 232.791 198 235C198 237.209 199.791 239 202 239Z" fill="#DCDCDC"/>
<path d="M337 150C339.209 150 341 148.209 341 146C341 143.791 339.209 142 337 142C334.791 142 333 143.791 333 146C333 148.209 334.791 150 337 150Z" fill="#DCDCDC"/>
<path d="M337 239C339.209 239 341 237.209 341 235C341 232.791 339.209 231 337 231C334.791 231 333 232.791 333 235C333 237.209 334.791 239 337 239Z" fill="#DCDCDC"/>
<path d="M450.26 232.999C450.945 232.97 451.54 232.52 451.755 231.869L455.786 222.786L464.869 218.755C465.52 218.54 465.969 217.945 465.999 217.26C466.027 216.565 465.62 215.941 465 215.676L440.297 205.136C438.935 204.555 437.555 205.935 438.136 207.297L448.676 231.999C448.945 232.63 449.576 233.027 450.26 232.999Z" fill="white"/>
<path d="M408.945 47.5474C404.487 44.5855 399.136 43.4233 393.859 44.2693C393.767 44.271 393.676 44.2799 393.584 44.2958C388.005 45.2636 383.136 48.3456 379.873 52.973C376.613 57.6023 375.35 63.2222 376.317 68.8017C376.477 69.7219 376.702 70.6491 376.984 71.5498C378.152 75.3418 377.864 79.4059 376.175 82.993C375.88 83.6147 375.977 84.353 376.421 84.8811C376.864 85.4092 377.567 85.6282 378.239 85.448L386.158 83.2862C389.512 85.3385 393.297 86.4 397.163 86.4C398.567 86.4 399.982 86.2605 401.39 85.9761C406.943 84.8581 411.727 81.6471 414.861 76.9332C421.332 67.2015 418.679 54.0204 408.945 47.5474Z" fill="#CC3333"/>
<path d="M397.2 54.3994C396.094 54.3994 395.2 55.1593 395.2 56.0994V66.2994C395.2 67.2395 396.094 67.9994 397.2 67.9994C398.306 67.9994 399.2 67.2378 399.2 66.2994V56.0994C399.2 55.1593 398.306 54.3994 397.2 54.3994Z" fill="white"/>
<path d="M399.04 74.0408C398.94 73.7809 398.8 73.561 398.62 73.3811C398.52 73.3012 398.42 73.2012 398.3 73.1413C398.2 73.0613 398.08 73.0033 397.96 72.9613C397.839 72.8993 397.719 72.8614 397.579 72.8413C396.941 72.7014 396.239 72.9232 395.78 73.3811C395.6 73.561 395.46 73.781 395.36 74.0408C395.26 74.2807 395.2 74.5407 395.2 74.8007C395.2 75.0606 395.26 75.3203 395.36 75.5603C395.46 75.8002 395.6 76.0201 395.78 76.22C395.981 76.3999 396.201 76.5398 396.441 76.6398C396.681 76.7398 396.941 76.7997 397.201 76.7997C397.461 76.7997 397.719 76.7398 397.96 76.6398C398.2 76.5399 398.418 76.4 398.62 76.22C398.8 76.0201 398.94 75.8002 399.04 75.5603C399.14 75.3204 399.2 75.0606 399.2 74.8007C399.2 74.5407 399.14 74.2807 399.04 74.0408Z" fill="white"/>
</g>
</g>
<defs>
<clipPath id="clip0_1113_1420">
<rect width="509" height="340" fill="white"/>
</clipPath>
</defs>
</svg>
