<svg width="509" height="340" viewBox="0 0 509 340" fill="none" xmlns="http://www.w3.org/2000/svg">
<g clip-path="url(#clip0_1118_1492)">
<mask id="mask0_1118_1492" style="mask-type:luminance" maskUnits="userSpaceOnUse" x="0" y="0" width="509" height="340">
<path d="M473 0H36C16.1177 0 0 16.1177 0 36V304C0 323.882 16.1177 340 36 340H473C492.882 340 509 323.882 509 304V36C509 16.1177 492.882 0 473 0Z" fill="white"/>
</mask>
<g mask="url(#mask0_1118_1492)">
<path d="M509 0H0V340H509V0Z" fill="#07D2E0"/>
<path opacity="0.546917" d="M533.997 251.488C533.997 251.488 533.997 309.868 533.997 332.122C533.997 354.376 508.904 354.077 508.904 354.077C508.904 354.077 17.8797 354.077 -3.8559 354.077C-25.5914 354.077 -26.0029 332.122 -26.0029 332.122V269.878C-26.0029 269.878 24.9955 230.131 70.4456 267.079C87.1258 278.467 93.0791 306.119 117.993 293.923C124.756 290.761 142.312 270.493 169.385 298.504C169.735 298.792 182.233 308.046 197.039 302.41C212.864 296.386 226.856 274.852 239.022 243.136C255.987 183.774 250.738 169.476 252.646 156.15C256.614 156.093 267.823 156.036 267.823 156.036C267.823 156.036 277.697 269.428 307.495 291.557C337.293 313.686 358.418 293.923 358.418 293.923C358.418 293.923 376.955 274.236 401.993 291.557C427.032 308.878 440.484 266.246 467.418 251.488C494.351 236.731 533.997 251.488 533.997 251.488Z" fill="white"/>
<path opacity="0.244359" d="M-25.999 328.385C-25.999 307.247 -25.999 307.371 -25.999 307.371C-25.999 307.371 4.34439 295.054 23.9284 307.371C24.0105 307.524 42.7098 245.889 104.138 268.786C103.985 268.977 140.536 208.376 200.765 250.331C200.798 250.15 220.771 198.866 276.451 218.545C289.102 222.406 320.531 244.557 320.531 268.786C320.604 268.968 340.841 256.2 349.088 280.683C349.088 280.683 369.505 247.63 410.541 256.2C415.904 257.34 445.134 266.731 454.791 295.549C455.666 297.777 515.415 253.053 533.948 326.541C533.948 329.939 536.349 355.821 507.85 353.988C475.809 353.992 13.9582 353.983 -1.11739 353.983C-16.1929 353.983 -25.999 349.522 -25.999 328.385Z" fill="white"/>
<path d="M204.999 189.044H261.356H317.997C317.997 189.044 318.001 188.937 317.997 187.089C317.997 172.153 308.026 163.723 301.555 159.07C295.083 154.418 289.677 145.241 289.677 139.657C287.596 85.3445 261.507 76.7066 261.507 76.7066V77.117L261.506 76.7051C261.506 76.7051 235.401 85.3444 233.32 139.656C233.319 145.241 225.528 154.372 220.207 158.918C214.886 163.463 204.999 172.152 204.999 187.089C204.995 188.937 204.999 189.044 204.999 189.044ZM247.86 132.659C247.604 132.761 247.329 132.574 247.338 132.299C247.415 129.954 247.833 121.125 249.816 118.385C252.268 114.998 256.352 112.263 261.704 112.263C266.772 112.263 270.744 114.941 273.215 117.978C275.46 120.737 275.971 129.94 276.067 132.313C276.077 132.584 275.811 132.773 275.556 132.68C274.198 132.186 270.588 130.895 269.028 130.557C266.041 129.909 263.539 129.545 261.704 129.545C259.771 129.545 257.037 129.838 253.832 130.557C252.394 130.879 249.146 132.147 247.86 132.659Z" fill="white"/>
<path d="M258.938 183.389C259.057 181.94 261.458 181.963 261.563 183.413C262.853 201.162 265.358 227.424 269.574 241.916C276.342 265.186 283.052 279.91 293.676 292.298C300.442 300.188 308.455 304.036 313.382 305.789C314.105 306.047 313.974 307.503 313.21 307.578L292.886 309.569C282.782 310.559 272.582 309.351 262.988 306.029L251.453 302.035C246.474 300.311 241.125 299.942 235.957 300.968L219.744 304.184C218.407 304.449 216.691 300.12 217.746 299.256C223.928 294.198 231.296 286.254 237.299 274.208C250.265 248.187 257.187 202.268 257.187 202.268L258.938 183.389Z" fill="url(#paint0_linear_1118_1492)"/>
</g>
</g>
<defs>
<linearGradient id="paint0_linear_1118_1492" x1="214.951" y1="186.387" x2="212.689" y2="310.179" gradientUnits="userSpaceOnUse">
<stop stop-color="white"/>
<stop offset="1" stop-color="white" stop-opacity="0.181675"/>
</linearGradient>
<clipPath id="clip0_1118_1492">
<rect width="509" height="340" fill="white"/>
</clipPath>
</defs>
</svg>
