<svg width="509" height="340" viewBox="0 0 509 340" fill="none" xmlns="http://www.w3.org/2000/svg">
<g clip-path="url(#clip0_1113_1475)">
<mask id="mask0_1113_1475" style="mask-type:luminance" maskUnits="userSpaceOnUse" x="0" y="0" width="509" height="340">
<path d="M473 0H36C16.1177 0 0 16.1177 0 36V304C0 323.882 16.1177 340 36 340H473C492.882 340 509 323.882 509 304V36C509 16.1177 492.882 0 473 0Z" fill="white"/>
</mask>
<g mask="url(#mask0_1113_1475)">
<path d="M509 0H0V340H509V0Z" fill="#5856D6"/>
<path d="M384.516 218.106C385.806 218.754 386 219.881 386 220.503C386 221.119 385.806 222.246 384.516 222.894L266.023 282.114C261 284.627 255 284.627 249.977 282.121L131.484 222.893C130.194 222.245 130 221.118 130 220.503C130 219.881 130.194 218.754 131.477 218.106L249.977 158.885C252.492 157.629 255.246 157 258 157C260.754 157 263.508 157.629 266.023 158.879L384.516 218.106Z" fill="#ACAAFF"/>
<path d="M384.516 178.106C385.806 178.754 386 179.881 386 180.503C386 181.119 385.806 182.246 384.516 182.894L266.023 242.114C261 244.627 255 244.627 249.977 242.121L131.484 182.893C130.194 182.245 130 181.118 130 180.503C130 179.881 130.194 178.754 131.477 178.106L249.977 118.885C252.492 117.629 255.246 117 258 117C260.754 117 263.508 117.629 266.023 118.879L384.516 178.106Z" fill="#D7D6FF"/>
<path d="M404.479 132.839C405.801 133.497 406 134.642 406 135.274C406 135.899 405.801 137.044 404.479 137.702L262.431 202.085C257.283 204.637 251.132 204.637 245.984 202.091L124.521 141.931C123.199 141.273 123 140.128 123 139.503C123 138.871 123.199 137.726 124.514 137.068L245.984 76.9149C248.561 75.6385 251.384 75 254.207 75C257.031 75 259.854 75.6385 262.431 76.9082L404.479 132.839Z" fill="white"/>
<path opacity="0.3" d="M406.5 146C412.299 146 417 141.299 417 135.5C417 129.701 412.299 125 406.5 125C400.701 125 396 129.701 396 135.5C396 141.299 400.701 146 406.5 146Z" fill="white"/>
<path d="M406.5 140C408.985 140 411 137.985 411 135.5C411 133.015 408.985 131 406.5 131C404.015 131 402 133.015 402 135.5C402 137.985 404.015 140 406.5 140Z" fill="#FF9933"/>
<path d="M124.5 144C126.985 144 129 141.985 129 139.5C129 137.015 126.985 135 124.5 135C122.015 135 120 137.015 120 139.5C120 141.985 122.015 144 124.5 144Z" fill="#FFCC33"/>
<path d="M254.5 208C256.985 208 259 205.985 259 203.5C259 201.015 256.985 199 254.5 199C252.015 199 250 201.015 250 203.5C250 205.985 252.015 208 254.5 208Z" fill="#FFCC33"/>
<path d="M254.5 80C256.985 80 259 77.9853 259 75.5C259 73.0147 256.985 71 254.5 71C252.015 71 250 73.0147 250 75.5C250 77.9853 252.015 80 254.5 80Z" fill="#FFCC33"/>
<path d="M418.26 162.999C418.945 162.97 419.54 162.52 419.755 161.869L423.786 152.786L432.869 148.755C433.52 148.54 433.969 147.945 433.999 147.26C434.027 146.565 433.62 145.941 433 145.676L408.297 135.136C406.935 134.555 405.555 135.935 406.136 137.297L416.676 161.999C416.945 162.63 417.576 163.027 418.26 162.999Z" fill="white"/>
</g>
</g>
<defs>
<clipPath id="clip0_1113_1475">
<rect width="509" height="340" fill="white"/>
</clipPath>
</defs>
</svg>
